<svg width="80" height="80" xmlns="http://www.w3.org/2000/svg">
  <g fill="none" fill-rule="evenodd">
    <path d="M26.492 35.048c0 .74.079 1.339.218 1.778.159.44.358.92.636 1.439.099.16.139.32.139.46 0 .2-.12.4-.378.599l-1.251.84a.949.949 0 01-.517.179c-.198 0-.397-.1-.595-.28-.279-.3-.517-.62-.716-.939a15.5 15.5 0 01-.615-1.179c-1.55 1.839-3.496 2.758-5.84 2.758-1.669 0-3-.48-3.973-1.439-.973-.96-1.47-2.238-1.47-3.836 0-1.699.596-3.078 1.808-4.117 1.212-1.039 2.82-1.558 4.866-1.558.676 0 1.371.06 2.106.16.735.1 1.49.26 2.284.44v-1.46c0-1.518-.318-2.577-.933-3.196-.636-.62-1.709-.92-3.238-.92-.695 0-1.41.08-2.145.26-.735.18-1.45.4-2.145.68-.318.14-.557.22-.696.26-.139.04-.238.06-.318.06-.278 0-.417-.2-.417-.62v-.98c0-.319.04-.559.14-.699.099-.14.277-.28.556-.42.695-.359 1.529-.659 2.502-.898.974-.26 2.007-.38 3.099-.38 2.364 0 4.092.54 5.204 1.618 1.093 1.08 1.649 2.718 1.649 4.916v6.474h.04zm-8.065 3.037c.656 0 1.33-.12 2.046-.36.715-.24 1.35-.679 1.887-1.278.318-.38.556-.8.675-1.28a7.16 7.16 0 00.199-1.738v-.839a16.5 16.5 0 00-1.827-.34 14.88 14.88 0 00-1.868-.12c-1.33 0-2.304.26-2.96.8-.655.54-.973 1.299-.973 2.298 0 .939.239 1.638.735 2.118.477.5 1.172.74 2.086.74zm15.95 2.158c-.357 0-.596-.06-.755-.2-.159-.12-.298-.4-.417-.779l-4.668-15.446c-.119-.4-.178-.66-.178-.799 0-.32.159-.5.476-.5h1.947c.377 0 .636.06.775.2.159.12.278.4.397.78l3.337 13.227L38.39 23.5c.099-.4.218-.66.377-.78s.437-.2.794-.2h1.59c.377 0 .635.06.794.2.159.12.298.4.377.78l3.139 13.387L48.897 23.5c.12-.4.258-.66.397-.78.16-.12.418-.2.775-.2h1.847c.318 0 .497.16.497.5 0 .1-.02.2-.04.32s-.06.28-.139.5l-4.787 15.445c-.119.4-.258.66-.417.78-.159.12-.417.2-.755.2h-1.708c-.377 0-.636-.06-.795-.2-.158-.14-.297-.4-.377-.8l-3.079-12.888-3.059 12.868c-.099.4-.218.66-.377.8s-.437.2-.795.2h-1.708zm25.524.54a13.07 13.07 0 01-3.059-.36c-.993-.24-1.767-.5-2.284-.8-.318-.18-.536-.379-.616-.559a1.41 1.41 0 01-.119-.56v-1.018c0-.42.16-.62.457-.62.12 0 .238.02.358.06.119.04.298.12.496.2.676.3 1.41.54 2.185.7.795.16 1.57.24 2.364.24 1.251 0 2.225-.22 2.9-.66.675-.44 1.033-1.08 1.033-1.899 0-.559-.179-1.019-.537-1.398-.357-.38-1.032-.72-2.006-1.04l-2.88-.898c-1.45-.46-2.523-1.14-3.178-2.039-.655-.879-.993-1.858-.993-2.897 0-.84.179-1.578.536-2.218a5.128 5.128 0 011.43-1.638 6.29 6.29 0 012.066-1.04c.795-.24 1.629-.339 2.503-.339.437 0 .894.02 1.33.08.458.06.875.14 1.292.22.397.1.774.2 1.132.32.358.12.636.24.834.36.278.159.477.319.596.499.12.16.179.38.179.659v.94c0 .419-.159.639-.457.639-.159 0-.417-.08-.755-.24-1.132-.52-2.403-.78-3.813-.78-1.133 0-2.027.18-2.642.56-.616.38-.934.96-.934 1.778 0 .56.199 1.04.596 1.419.397.38 1.132.76 2.185 1.099l2.82.9c1.43.459 2.464 1.098 3.08 1.917.615.82.913 1.759.913 2.798 0 .859-.179 1.638-.516 2.318a5.367 5.367 0 01-1.45 1.758c-.616.5-1.351.86-2.205 1.119-.894.28-1.828.42-2.84.42z" fill="#252F3E" fill-rule="nonzero"/>
    <g fill="#F90">
      <path d="M64.08 50.273c-6.65 5.034-16.311 7.706-24.619 7.706-11.643 0-22.133-4.412-30.057-11.746-.626-.58-.06-1.367.688-.911 8.57 5.096 19.141 8.183 30.077 8.183 7.377 0 15.483-1.575 22.941-4.807 1.112-.517 2.062.746.97 1.575z"/>
      <path d="M66.85 47.041c-.85-1.118-5.62-.538-7.782-.27-.647.084-.748-.496-.162-.931 3.8-2.735 10.046-1.948 10.774-1.036.727.932-.202 7.333-3.76 10.4-.546.476-1.071.227-.829-.394.809-2.051 2.608-6.67 1.759-7.769z"/>
    </g>
  </g>
</svg>
