<svg width="80" height="80" xmlns="http://www.w3.org/2000/svg">
  <path d="M50.069 55.709l.114-.025-6.264-7.45c-3.445-4.098-6.264-7.467-6.264-7.486 0-.037 6.468-17.849 6.505-17.912.012-.021 4.413 7.578 10.67 18.421l10.73 18.6.082.143-19.907-.003-19.907-.002 12.063-2.131a9809.558 9809.558 0 0012.178-2.155zm-29.51-11.503l6.559-11.367 7.644-6.414A3182.75 3182.75 0 0142.43 20c.014-.005-.041.134-.122.31l-8.3 17.802-8.152 17.484-5.928.007c-3.26.004-5.928 0-5.928-.011 0-.01 2.952-5.134 6.559-11.386z" fill="#0089D6"/>
</svg>
