<svg width="80" height="80" xmlns="http://www.w3.org/2000/svg">
  <g fill="none">
    <path fill="#FFF" d="M63.572 42.414l-7.148-4.093-1.238-.539-29.25.2v14.855h37.636z"/>
    <path d="M50.554 51.46c.36-1.199.22-2.297-.36-3.116-.538-.758-1.437-1.178-2.515-1.238l-20.526-.26c-.14 0-.26-.059-.32-.159s-.08-.24-.06-.36a.517.517 0 01.48-.359l20.705-.26c2.456-.119 5.112-2.096 6.05-4.532l1.178-3.075a.69.69 0 00.04-.399c-1.337-6.03-6.709-10.542-13.158-10.542-5.93 0-10.962 3.833-12.759 9.144a6.111 6.111 0 00-4.252-1.178c-2.856.28-5.132 2.576-5.411 5.411-.06.74-.02 1.458.16 2.117a8.615 8.615 0 00-8.367 8.626c0 .419.04.838.08 1.257.04.2.2.36.4.36h37.876c.22 0 .42-.16.48-.36l.28-1.078z" fill="#F38020"/>
    <path d="M57.083 38.301c-.18 0-.38 0-.559.02-.14 0-.26.1-.3.24l-.798 2.775c-.36 1.198-.22 2.296.36 3.115.538.759 1.437 1.178 2.515 1.238l4.373.26c.14 0 .26.06.32.16.06.099.08.259.06.359-.06.2-.26.359-.48.359l-4.552.26c-2.476.12-5.112 2.096-6.05 4.532l-.34.859c-.06.16.06.339.24.339h15.634c.18 0 .36-.12.4-.3.259-.958.418-1.976.418-3.034-.02-6.15-5.051-11.182-11.24-11.182" fill="#FAAE40"/>
  </g>
</svg>
