<svg xmlns="http://www.w3.org/2000/svg" width="72" height="137">
  <path fill="#0c5ce5" d="M68.5 0a3.5 3.5 0 110 7 3.5 3.5 0 010-7zm0 32a3.5 3.5 0 110 7 3.5 3.5 0 010-7zm0 33a3.5 3.5 0 110 7 3.5 3.5 0 010-7zm0 33a3.5 3.5 0 110 7 3.5 3.5 0 010-7zm0 32a3.5 3.5 0 110 7 3.5 3.5 0 010-7zM36.5 0a3.5 3.5 0 110 7 3.5 3.5 0 010-7zm0 32a3.5 3.5 0 110 7 3.5 3.5 0 010-7zm0 33a3.5 3.5 0 110 7 3.5 3.5 0 010-7zm0 33a3.5 3.5 0 110 7 3.5 3.5 0 010-7zm0 32a3.5 3.5 0 110 7 3.5 3.5 0 010-7zM3.5 0a3.5 3.5 0 110 7 3.5 3.5 0 010-7zm0 32a3.5 3.5 0 110 7 3.5 3.5 0 010-7zm0 33a3.5 3.5 0 110 7 3.5 3.5 0 010-7zm0 33a3.5 3.5 0 110 7 3.5 3.5 0 010-7zm0 32a3.5 3.5 0 110 7 3.5 3.5 0 010-7z" opacity=".1"/>
</svg>
