<svg xmlns="http://www.w3.org/2000/svg" width="137" height="72">
  <path fill="#0c5ce5" d="M0 3.5a3.5 3.5 0 117 0 3.5 3.5 0 01-7 0zm32 0a3.5 3.5 0 117 0 3.5 3.5 0 01-7 0zm33 0a3.5 3.5 0 117 0 3.5 3.5 0 01-7 0zm33 0a3.5 3.5 0 117 0 3.5 3.5 0 01-7 0zm32 0a3.5 3.5 0 117 0 3.5 3.5 0 01-7 0zM0 35.5a3.5 3.5 0 117 0 3.5 3.5 0 01-7 0zm32 0a3.5 3.5 0 117 0 3.5 3.5 0 01-7 0zm33 0a3.5 3.5 0 117 0 3.5 3.5 0 01-7 0zm33 0a3.5 3.5 0 117 0 3.5 3.5 0 01-7 0zm32 0a3.5 3.5 0 117 0 3.5 3.5 0 01-7 0zM0 68.5a3.5 3.5 0 117 0 3.5 3.5 0 01-7 0zm32 0a3.5 3.5 0 117 0 3.5 3.5 0 01-7 0zm33 0a3.5 3.5 0 117 0 3.5 3.5 0 01-7 0zm33 0a3.5 3.5 0 117 0 3.5 3.5 0 01-7 0zm32 0a3.5 3.5 0 117 0 3.5 3.5 0 01-7 0z" opacity=".1"/>
</svg>
