<svg xmlns="http://www.w3.org/2000/svg" width="181" height="95">
  <path fill="#0c5ce5" d="M0 4.5a4.5 4.5 0 119 0 4.5 4.5 0 01-9 0zm43 0a4.5 4.5 0 119 0 4.5 4.5 0 01-9 0zm43 0a4.5 4.5 0 119 0 4.5 4.5 0 01-9 0zm43 0a4.5 4.5 0 119 0 4.5 4.5 0 01-9 0zm43 0a4.5 4.5 0 119 0 4.5 4.5 0 01-9 0zM0 47.5a4.5 4.5 0 119 0 4.5 4.5 0 01-9 0zm43 0a4.5 4.5 0 119 0 4.5 4.5 0 01-9 0zm43 0a4.5 4.5 0 119 0 4.5 4.5 0 01-9 0zm-86 43a4.5 4.5 0 119 0 4.5 4.5 0 01-9 0zm43 0a4.5 4.5 0 119 0 4.5 4.5 0 01-9 0zm43 0a4.5 4.5 0 119 0 4.5 4.5 0 01-9 0zm43 0a4.5 4.5 0 119 0 4.5 4.5 0 01-9 0zm43 0a4.5 4.5 0 119 0 4.5 4.5 0 01-9 0z" opacity=".2"/>
</svg>
