<svg width="80" height="80" xmlns="http://www.w3.org/2000/svg">
  <defs>
    <linearGradient x1="28.875%" y1="-.001%" x2="71.126%" y2="100%" id="a">
      <stop stop-color="#109CF8" offset="0%"/>
      <stop stop-color="#935EE9" offset="100%"/>
    </linearGradient>
  </defs>
  <path d="M40.612 59.799c.071.021.146.032.213.062.068.031.125.08.187.12l.012.01.06.053.104.092c.438.394.861.803 1.269 1.227.29.301.57.61.84.927a13.373 13.373 0 01.952 1.268c.127.194.247.392.355.595.094.18.181.36.257.548.132.322.23.663.264 1.011l.01.194v.17l-.019.289a3.88 3.88 0 01-.271 1.125 3.67 3.67 0 01-1.19 1.538 3.957 3.957 0 01-.637.402 5.266 5.266 0 01-1.902.54l-.306.022-.338.008a6.27 6.27 0 01-.698-.041 5.524 5.524 0 01-1.136-.251 4.687 4.687 0 01-.907-.417 4.011 4.011 0 01-.83-.66 3.603 3.603 0 01-.744-1.141 3.874 3.874 0 01-.291-1.415c-.007-.261.02-.522.08-.777.042-.181.1-.357.168-.532a5.09 5.09 0 01.234-.517 9.267 9.267 0 01.761-1.207c.225-.305.464-.6.713-.89a23.408 23.408 0 011.572-1.633l.327-.301.256-.227.012-.01c.12-.089.256-.15.4-.182h.223zm.353-49.792l.522.013.233.013 1.417.114 1.96.27.141.031 1.9.46.537.157.608.204.739.274.575.236.893.414.5.248 1.01.58.31.183 1.38.984.336.29.951.847.814.854.225.246.958 1.24.143.224.737 1.214.207.388.417.904.433 1.053.142.408.463 1.643.36 2.222.063.691.057.992.004.145-.02 1.11-.014.208-.054.437-.318 1.773-.047.213-.73 2.226-.677 1.602-.865 1.688-1.546 2.634-.795 1.185-.963 1.41-.696.928-1.355 1.773-.93 1.142-1.374 1.638-.96 1.097-1.494 1.641-.939 1.008-2.777 2.836-.064.062-1.488 1.428-.821.765-.051.047-.064.058-.081.058-.06.026-.162.052-.388-.016-.036-.012-.21-.129-.026-.025-.027-.024-.113-.102-.305-.281-.023-.022-2.725-2.645-.843-.854-2.157-2.266-.514-.549-2.6-2.97-.727-.881-2.289-2.913-.227-.297-1.74-2.503-.47-.745-1.25-2.095-.363-.651-1.093-2.252-.172-.44-.628-1.723-.216-.734-.176-.707-.149-.776-.12-.867-.046-.527L21 27.6l.004-.17.027-.533.217-2.156.051-.277.498-2.153.01-.04.082-.24.347-.994.109-.251.564-1.217.384-.709.544-.878.541-.78.376-.488.444-.52.484-.525.396-.39 1.042-.898.778-.622.92-.608.655-.411 1.389-.715 1.97-.8.098-.04 1.752-.499.687-.15.947-.186.642-.096.987-.12.667-.058 1.331-.07h.008l.494-.006h.092l.426.008.002-.001zm-1.126 3.057a6.434 6.434 0 00-1.455.311c-.507.17-.99.402-1.441.687-1.34.841-2.365 2.098-3.118 3.462-.128.227-.245.46-.358.695-.307.645-.568 1.31-.781 1.992-.152.472-.283.95-.397 1.432a23.113 23.113 0 00-.354 1.835 27.776 27.776 0 00-.252 2.362c-.032.5-.053 1.003-.062 1.505-.012.578-.007 1.157.034 1.735.097 1.35.332 2.688.64 4.006a46.16 46.16 0 001.47 4.906A74.744 74.744 0 0036.2 43.95a105.654 105.654 0 003.588 7.106l.097.175V13.06l-.046.003zm5.066.096c.892.182 1.77.425 2.626.732a16.25 16.25 0 013.466 1.725c1.465.966 2.73 2.2 3.726 3.634a13.489 13.489 0 011.443 2.717c.555 1.408.877 2.9 1.005 4.404.034.394.054.788.063 1.184.008.368.006.737-.023 1.104a12.13 12.13 0 01-.474 2.426c-.19.648-.42 1.285-.68 1.91a26.968 26.968 0 01-1.081 2.282 43.88 43.88 0 01-2.963 4.764 74.548 74.548 0 01-4.272 5.448 104.506 104.506 0 01-4.908 5.333l-.217.22a105.465 105.465 0 003.373-6.746 80.788 80.788 0 001.64-3.864 58.879 58.879 0 001.528-4.343 41.58 41.58 0 00.878-3.33c.21-.961.375-1.936.476-2.915.087-.816.12-1.636.098-2.456-.01-.5-.027-1-.058-1.501-.122-2.014-.435-4.021-1.037-5.952a17.432 17.432 0 00-.829-2.145c-.767-1.636-1.841-3.168-3.294-4.284a8.176 8.176 0 00-.487-.347h.001z" fill="url(#a)" fill-rule="evenodd"/>
</svg>
