<svg width="23" height="17" xmlns="http://www.w3.org/2000/svg" xmlns:xlink="http://www.w3.org/1999/xlink">
  <defs>
    <linearGradient x1="50%" y1="0%" x2="50%" y2="100%" id="c">
      <stop stop-color="#FFF" offset="0%"/>
      <stop stop-color="#F0F0F0" offset="100%"/>
    </linearGradient>
    <linearGradient x1="50%" y1="0%" x2="50%" y2="100%" id="d">
      <stop stop-color="#0A17A7" offset="0%"/>
      <stop stop-color="#030E88" offset="100%"/>
    </linearGradient>
    <linearGradient x1="50%" y1="0%" x2="50%" y2="100%" id="h">
      <stop stop-color="#E7273E" offset="0%"/>
      <stop stop-color="#CF152B" offset="100%"/>
    </linearGradient>
    <filter x="-50%" y="-50%" width="200%" height="200%" filterUnits="objectBoundingBox" id="b">
      <feOffset dy=".5" in="SourceAlpha" result="shadowOffsetOuter1"/>
      <feGaussianBlur stdDeviation=".5" in="shadowOffsetOuter1" result="shadowBlurOuter1"/>
      <feColorMatrix values="0 0 0 0 0 0 0 0 0 0 0 0 0 0 0 0 0 0 0.16 0" in="shadowBlurOuter1"/>
    </filter>
    <filter x="-50%" y="-50%" width="200%" height="200%" filterUnits="objectBoundingBox" id="f">
      <feMorphology radius=".25" operator="dilate" in="SourceAlpha" result="shadowSpreadOuter1"/>
      <feOffset in="shadowSpreadOuter1" result="shadowOffsetOuter1"/>
      <feColorMatrix values="0 0 0 0 0 0 0 0 0 0 0 0 0 0 0 0 0 0 0.06 0" in="shadowOffsetOuter1"/>
    </filter>
    <rect id="a" x="0" y="0" width="21" height="15" rx="1.5"/>
    <path d="M8 10.392V16h5v-5.608l8.962 6.045 1.118-1.658L15.995 10H21V5h-5.005L23.08.22l-1.118-1.657L13 4.608V-1H8v5.608L-.962-1.437-2.08.22 5.005 5H0v5h5.005l-7.085 4.78 1.118 1.657L8 10.392z" id="g"/>
  </defs>
  <g transform="translate(1 1)" fill="none" fill-rule="evenodd">
    <mask id="e" fill="#fff">
      <use xlink:href="#a"/>
    </mask>
    <use fill="#000" filter="url(#b)" xlink:href="#a"/>
    <use fill="url(#c)" xlink:href="#a"/>
    <path fill="url(#d)" mask="url(#e)" d="M0 0h21v15H0z"/>
    <g mask="url(#e)">
      <use fill="#000" filter="url(#f)" xlink:href="#g"/>
      <use fill="url(#c)" xlink:href="#g"/>
    </g>
    <path d="M14.001 4.75L23.5-1.5" stroke="#DB1F35" stroke-width=".5" stroke-linecap="round" mask="url(#e)"/>
    <path d="M15.01 16.013l8.515-5.74" stroke="#DB1F35" stroke-width=".5" stroke-linecap="round" mask="url(#e)" transform="matrix(1 0 0 -1 0 26.286)"/>
    <path d="M6.004 4.733l-8.882-5.986" stroke="#DB1F35" stroke-width=".5" stroke-linecap="round" mask="url(#e)"/>
    <path d="M6.968 16.733l-9.846-6.53" stroke="#DB1F35" stroke-width=".5" stroke-linecap="round" mask="url(#e)" transform="matrix(1 0 0 -1 0 26.937)"/>
    <path fill="url(#h)" mask="url(#e)" d="M0 9h9v6h3V9h9V6h-9V0H9v6H0z"/>
  </g>
</svg>
