<svg width="80" height="80" xmlns="http://www.w3.org/2000/svg">
  <g fill="none">
    <path d="M46.851 30.114h1.675l4.774-4.751.234-2.018c-8.885-7.806-22.445-6.963-30.288 1.88a21.32 21.32 0 00-4.622 8.54 2.595 2.595 0 011.674-.098l9.548-1.568s.485-.8.739-.751c4.246-4.643 11.393-5.185 16.3-1.234h-.034z" fill="#EA4335"/>
    <path d="M60.101 33.766a21.372 21.372 0 00-6.482-10.401l-6.699 6.667a11.833 11.833 0 014.372 9.404v1.184c3.293 0 5.964 2.658 5.964 5.936 0 3.277-2.67 5.935-5.964 5.935H39.364l-1.19 1.201v7.12l1.19 1.185h11.928c8.565.065 15.564-6.792 15.63-15.317a15.422 15.422 0 00-6.82-12.914z" fill="#4285F4"/>
    <path d="M27.42 61.921h11.927V52.42H27.42a5.964 5.964 0 01-2.463-.535l-1.675.519-4.807 4.75-.418 1.667a15.444 15.444 0 009.363 3.101z" fill="#34A853"/>
    <path d="M27.42 31.098c-8.569.05-15.47 7.002-15.42 15.53a15.405 15.405 0 006.057 12.143l6.916-6.884c-3-1.348-4.335-4.865-2.98-7.851 1.355-2.986 4.89-4.315 7.89-2.966a5.964 5.964 0 012.98 2.966l6.916-6.884a15.502 15.502 0 00-12.36-6.054z" fill="#FBBC05"/>
  </g>
</svg>
