<svg width="80" height="80" xmlns="http://www.w3.org/2000/svg">
  <path d="M56.76 16H22.32c-2.4 0-4.32 1.92-4.32 4.32v39.36c0 2.4 1.92 4.32 4.32 4.32h34.44c2.4 0 4.32-1.92 4.32-4.32V20.32c0-2.4-1.92-4.32-4.32-4.32zm1.92 43.68c0 1.08-.84 1.92-1.92 1.92H22.32c-1.08 0-1.92-.84-1.92-1.92V20.32c0-1.08.84-1.92 1.92-1.92h34.44c1.08 0 1.92.84 1.92 1.92v39.36zM28.8 56.8l5.4-4.8-5.4-4.8v9.6zm19.44-19.44c-.96-.96-2.76-2.16-5.76-2.16-3.24 0-6.6.84-9 1.68V23.2h-4.8v20.76l3.36-1.56s5.52-2.52 10.32-2.52c2.4 0 3 1.32 3 2.52v14.4h4.8V42.4c.12-.36.12-3-1.92-5.04zM41.88 31h4.8c2.16-2.52 3.24-5.04 3.6-7.8h-4.8c-.48 2.76-1.68 5.28-3.6 7.8z" fill="#430098"/>
</svg>
