<svg xmlns="http://www.w3.org/2000/svg" width="383" height="261">
  <defs>
    <linearGradient id="a" x1="46" x2="46" y1="84" y2="44" gradientUnits="userSpaceOnUse">
      <stop offset="0" stop-color="#ff4517"/>
      <stop offset="1" stop-color="#ff5f3a"/>
    </linearGradient>
  </defs>
  <g clip-path="url(#clip-344E6B6A-489C-47FE-9CC4-9FB93AE64D58)" opacity=".05">
    <path fill="#0c5ce5" d="M296.97 170.972v-.314c.947-.158.316 1.57 1.42 1.57-.316.315-.316.472-.158.787-.315 0-.473-.158-.789-.315-.315-.157-.157-.314-.315-.628-.158-.157-.316-.472-.474-.472 0-.157-.157-.157-.473-.314.316-.314.473-.943.789-.314zm11.992 10.415c-.473-.157-1.104-.473-1.578-.63-.947.157-1.262-.158-2.051-.158-.158 0-.158.315-.316.157-.315 0-.63 0-.789-.157-.315 0-.789-.158-1.104-.316-.316-.158-.79-.473-1.263-.473-.473 0-.946.315-1.262.157-.789-.157-1.578-.63-2.367-.789 0-.157 0-.315.158-.473-.631-.158-1.893-.316-.947-1.262.316-.316.316-.474.631-.474.316.158.79.316.947-.157.316.157 1.736.473 1.736.63.631.947 1.262.79 2.209.79.316 0 .631.157.789-.158.158-.474.316-.79.789-.316.316.474 1.578.474 2.051.316-.473 1.262.316 1.736 1.105 1.578 1.42-.316.63.789 1.262 1.735zm-9.467-8.205c0-.315-.316-1.735.473-1.104.631.473.631 1.42-.473 1.104zm-3.954 3.304c0 .316-.158.473-.158.789l-3.626-3.627c-.631-.631-1.104-1.104-1.577-1.893-.316-.788-.789-2.365-1.42-3.154-.315-.315-.63-.157-.788-.473l-.473-1.892c-.315-1.104-1.577-.789-1.577-1.892 0-.947-1.261-1.262-1.734-1.735-.316-.158-1.577-2.05-1.42-2.366.158-.315 1.893.473 2.366.473 1.104.158.946.631 1.577 1.42.473.63 1.419 1.261 1.892 1.734.63.631 1.577.947 2.05 1.735.315.473.63.316 1.104.473.788.158.315.316.63.631.473.315.789 0 .789.789 0 .315.788.315.946.946.157.473-.473.63-.316 1.104 0 .315.789.473 1.104.63.316.158.316 1.104.316 1.262.147.442.569.471.111.986.803-.742 2.082.168 1.78 1.222-.157.788.158 2.365-.157 3.47-.473-.947-.788.157-1.42-.632zm6.636-35.493c-.316 0-.473 0-.789-.158-.631-.473-.473-.631-.473-1.42.789-.473 1.42-1.736 2.682-.947v-.315c.474 0 .631.473.474.946-.474 0-.632.631-.632 1.105 0 .315-.63.315-.946.473-.158.158.157.316-.316.316zM125.45 40.164c.316 1.42.316 1.262-.473 2.21-1.736.946-3.471 2.05-5.207 3.155-1.42.789-3.314.947-4.892 1.42l-3.313.947c-.79.158-.947.631-1.42 1.262-.474.631-1.105 1.894-1.894 2.367-.63.473-1.578.631-2.367.789-1.104.316-2.367.789-3.471 1.105-.789.315-.789.315-1.105 1.262-.63 1.736-1.262 3.471-1.893 5.207-.79 2.209-1.42 4.418-2.21 6.627 0 .158-1.577.158-1.893 0-1.104-.473-2.367-.789-3.471-1.262-.473-.316-1.578-.316-1.894-.947-.789-1.104-1.42-2.209-2.209-3.314-1.262-1.893-2.524-3.629-3.313-5.838-.474-1.262-.947-2.682-1.42-3.945-.316-.946.157-2.524.315-3.471 0-.158 0-1.105.158-1.105.631-.157 1.262-.473 1.893-.788.158 0 1.105-.316 1.105-.474.158-.631.158-1.262.316-2.051-.947.158-1.894.473-2.84.789-1.263.473-1.263.473-2.21-.631-.789-.947-.315-1.578 0-2.683.316-1.104-.63-1.578-1.42-2.367-.789-.789-.158-1.42.158-2.367.315-1.104.158-1.104-.316-2.209-.946-1.893-1.578-3.944-2.84-5.522-.316-.316-1.262-2.052-1.736-2.21l-2.84-.473c-1.893-.315-3.471-.789-5.365-.473-1.104.158-2.051.315-3.156.473-.473.158-1.735-.947-2.209-1.262-.789-.474-1.735-1.105-2.682-1.578-.631-.473-1.263-1.736-1.736-2.367-.158-.316-.789-.947-.789-1.262 0-.474 0-1.42.316-1.42l4.733-1.42c1.263-.316 2.21-.632 3.472-.632.947 0 .947.158 1.578-.63.315-.632.631-1.421.947-2.21-1.42-.158-2.683 0-3.63-1.104 2.683-1.263 5.365-2.683 8.048-4.103 1.104-.631 2.209-1.105 3.313-1.736.79-.473 2.21-.315 2.998-.473 1.894-.316 3.787-.474 5.68-.79.948 0 2.21-.472 2.999-.315 2.682.631 5.207 1.42 7.89 2.367-.947-1.578-2.683-2.367-4.103-3.313 1.578-.79 3.156-1.42 4.734-2.21 1.104-.473 2.524.158 3.629.316l2.84.473c.79.158.79-1.104 1.42-1.42.316-.157 1.105-.157 1.578-.157 1.105-.158 2.367-.158 3.472-.316 3.313-.316 6.311.316 9.625.789 2.84.315 5.365 1.578 8.047 2.84-1.42.631-2.84 1.105-4.26 1.578.789.631 1.736.473 2.84.473 1.105.158-.473 2.683-.631 2.998.789-.315 2.525-1.577 3.471-1.42.79 0 1.578.158 2.367.316.79.158.947-.631 1.42-1.105.632-.789 2.525-.63 3.472-.473 1.262.316 2.682 1.105 3.945 1.578-1.263.631-2.367 1.262-3.472 1.893-.789.474-2.051.632-2.998.79.158.315.474.473.79.788-.79.947-1.579 1.578-2.526 2.21-.789.473-1.893.946-2.524 1.893-.474.789-1.894 2.209-1.42 3.156.473 1.262 1.262 1.578 2.367 2.367-1.105 1.104-2.21 2.05-3.314 3.155.789.632 1.42 1.105 2.209 1.578.631.316.473 1.42.631 2.21 0 .315.474 2.209.316 2.366-.79.947-1.42 1.736-2.21 2.525-1.104 1.262-1.42 3.314-2.05 4.892-.158.63.473 2.05.63 2.682zm6.943 17.83c-.315 0-.789.158-1.104.158-.474 0-.316.316-.631.474-.632.315-1.263.315-1.894.157-.315 0-.789 0-1.104-.315-.158-.158-.316-.79-.632-.631-.789.157-1.735.157-2.524.315-.316-.946.947-.63 1.262-1.42h-.315v-.315c-.474 0-.632-.158-.316-.632-.631 0-2.367.316-2.525-.473.947 0 2.052-.473 2.998-.316v-.315c-.315.158-.63.158-1.104-.158.315-.158.789-.316 1.104-.473-.473-.158-1.262-.474-1.735-.316-.947.316-1.105.473-2.052.158.316-.158.158-.316.631-.158v-.473c.316.158.632.315.79.158.157-.316-.79-.316-.316-.947.473-.474 1.736.946 1.578-.316-.474 0-.79 0-.947-.473.947 0 .947.158 1.736.789.158.158.789.315.789.473 0 .316-.316.474-.631.474.315.473.473.788.788 1.262.158-.474.316-.947.474-1.262.315-.474.947 0 .473-.947.631-.158.947.473 1.263.947-.158-.474 0-1.105.63-1.105.632 0 .79.473 1.263 1.105 0-.316-.158-.79-.158-1.105.947.473 1.263 0 2.367 0-.631-1.578 2.998-.158 2.21 1.105.63-.158.946.157 1.577.473.316.158-.158.789.316 1.262-.474.474-.79.947-1.42.631.157.79-.158 1.263-.947 1.105-.474-.158-1.42.789-1.894 1.104zm-77.475 82.841c-.316-.947 2.209.158 2.84-.316-.631-.946-.473-1.262-1.42-1.735.947-.474 1.262-.158 2.209-.158.158 0 .789-.158.947-.158.315-.158.789.158 1.262.316s.473-.158.789.315c.316.631.316.631 1.104.79.316 0 .947.473.79.788-.474.631-.316.158-.947.158-.79 0-1.263.316-2.052.316-.157 0-.315-.474-.63-.158-.159.158-.159 1.104-.474 1.104-.631.158-.474-.789-.631-.946-.79-.158-1.263 0-1.578 0-1.105-.158-1.42.315-2.21-.316zm266.036 42.762c.633-.632-.158-.79.317-1.263.474-.473 1.106-.631 1.58-.789.159-.158.159-.473.317-.473.316-.158.632-.158.79-.158.633-.158 1.265-.158 1.898-.158-.316.79-1.898 1.263-2.688 1.578-.316.158-.474.474-.79.79-.317.473-.95.473-1.424.473zm-19.408-17.83c.315-.159.631-.316.947-.474.157.946 1.578.946 2.209 1.104-.79-.789-.474-.789 0-1.578.473-.789 1.104-.789 1.735-.946.632-.158.947-.947 1.263-1.578.63-.947.789-.947 1.735-1.105.79-.158.316-.631.79-1.262.315-.316 1.262-1.736 1.577-1.894.316 0 1.42.947 1.736 1.263.158.315.473.789.789.789.473.157.631 0 .789.473l-1.42.473c.158.316.315.474.631.79-.316 0-1.578 0-1.578.63 0 1.263.316 1.105.79 2.21 0 .157-.159.63-.159.789.158.315.631.63.79.788.946.79.473.947-.474.79-.474-.158-.79.788-.79 1.42.159 1.104.159 1.104-.788 1.893-.631.473-.789.631-.789 1.42v2.683c-.473 0-.473-.316-.316-.79l-1.893.947c-.158-.315-.158-.946-.473-1.104-.316-.158-.632.158-.947 0-1.105-.79-1.263-.473-2.525.158 0-.316-.158-.79-.158-1.105-.315.158-1.893.79-2.051 0-.158-.947 0-2.209-.631-2.84-.158.473 0 .158-.474.473.158-.63-.157-.315-.157-.63 0-.316-.158-.474-.158-.79 0-.158.315-.315.158-.473 0-.316-.474-.631-.316-.947 0-.473.158-1.105.158-1.578zm18.462 9.782c0-.631.473-.947.63-.158-.315 0-.63.158-.315.474.316.473 0 .63-.315 1.104l-.79-.789c0-.315.474-1.578.79-.63zm-2.525 5.996c-.316-.315-2.21-.158-1.42-.946.63-.632 1.893.473 2.524 0 .316-.158.632.315.947.157.474-.473.474-.473 1.105-.473.946 0 1.578-.316 2.524.158-.63.63-2.051.158-2.998.315-.315 0-.63.631-1.262.474-.158 0-.316.315-.473.315-.316 0-.474-.315-.947 0zm-4.26-1.104c.788-.316 2.998.789.946 1.104-1.262.158-2.209.316-3.471-.158.315-.63.158-.946.947-.946.157 0 .789.315 1.104.63.473 0 .631-.157.473-.63zm1.577 2.209c0-.947 2.052-.316 2.21.315.63 1.42-1.578 0-2.21-.315zm9.941-27.454l-.315.317c.157 0 .157.158.315.158v.474c.631 0 .158 1.58 0 2.054l-.158-.158v.949c-.315-.475-.157-1.107-.473-1.58-.789.631-.315.947-.158 1.58.158.948-.789 1.264-.473.316h-.158c-.158.79-1.42-.158-1.578-.632-.315-.79.631-2.055-.789-1.897v.632c-.315-.158-.315-.158-.315-.474-.158.158-.316.158-.316.474-.315-1.422-.789.474-1.104.79-.632-.948.473-1.738 1.104-1.896.316-.158.158-.949.79-.949.63 0 .63.633.315 1.107.63-.158.789-1.265 1.42-.79 0-.475.158-.79.473-.633.158-.316.158-.316.631-.158 0-.316-.157-.79-.157-1.106.157 0 .315.316.473.79.315-.158.473.316.473.632zm-8.994-3.631c-.158.315.158 1.104.158 1.262-.316.158-1.105.631-1.105.947-.157 1.262-1.262 1.578-2.209 2.209.474-.947.947-1.578 1.736-2.367.631-.789.789-1.262.947-2.367.158.158.315.158.473.316zm1.578-16.41c-.473-.79-1.262-1.42-.947-2.525.158-.947.79-2.051 1.578-2.367 1.42-.631.631 1.42.474 2.051a15.187 15.187 0 01-1.105 2.84zm-.631 9.31c.158-.474-.316-.632-.316-1.105.158-.79.316-1.578.474-2.525 0-.316.63-.473.946-.473.947.157.474.63 1.42.157.316.632-.315.947-.157 1.42.158.947.63.474.315 1.578 0 .316-.157.632-.315.79-.158.157-.631-.158-.631.157 0 .947-.632.631-.158 1.578.315.474 0 1.262.631 1.262.316 0 .316-.473.631-.473.316 0 .474.158.79.316.315.157.472.473.788.473.158 0 .316-.473.473-.316.632.632.158.947-.473.632 0 .789.947.63.473 1.578-.315-.158-1.104-.474-1.104-.79 0-.788-.158-.788-.947-1.104 0 .316-.158.789-.158 1.105-.157-.316-.315-.632-.63-.79-.79-.473-.474 0-1.105 0-.632-.157-1.263-.946-.474-1.42-.473-.157-1.104-.157-1.104-.788 0-.474-.316-1.263 0-1.894.158.158.473.316.63.631zm-94.37 47.492l-.63-.631c.158 1.893 0 2.839-.473 4.574l-2.364 8.043c-.158.789-.473 1.42-.63 2.208 0 .158-1.734.631-2.05.789-.315.157-2.048-.473-2.048-.789l-.473-2.839c-.316-.946-.473-1.735-.158-2.839.315-.946 1.261-1.734 1.419-2.68.157-.79-.473-2.209-.63-2.997-.158-.473.314-2.208.63-2.366 1.103-.158 1.733-.473 2.68-.946.787-.473 1.102-1.104 1.89-1.893.789-.946 1.262-.946 1.262-2.208-.158-1.892.945-.158 1.26.316.316 1.577.789 2.838.316 4.258zM-11.521 89.079c.226.453.392.805.445 1.047a71.49 71.49 0 00-1.382-.413l.21.573c-2.16-1.24-3.868-2.342-5.575-4.362 1.103-.316 1.418.157 2.363.473 1.26.473 1.576.158 2.206 1.42.315.316.315.631.788.789.315.158.788.158.945.473zm.445 1.047c.579.178 1.151.356 1.774.534 0-1.578.157-1.736-.947-2.84-.79-.79-1.42-1.42-2.367-2.052-.79-.473-1.578-.473-2.367-.947-1.42-.63-1.578-.63-2.21-2.051-.63-1.736-3.155-2.525-2.997-4.418.158-1.736 0-1.578-1.262-2.367-.158-.158-.947 1.735-1.578.789-.474-.632-1.105-2.367-1.736-2.683-.947-.473-1.105-.631-1.736-1.578-.63-.947-1.104-2.051-1.893-2.84-.631-.632-1.578-1.105-2.21-1.578-1.735-1.105-3.155-1.736-5.206-2.525-.79-.316-1.736.316-2.367.158-.79-.158-1.736-1.105-2.525-1.578-.947-.631-1.262-.79-2.367-.79-.947.159-1.42.316-1.104 1.579.315 1.104-3.63 2.051-4.576 2.367-.158-.474 0-.79.473-.947-.631-.158-.158-2.21.316-2.367.946-.473 1.42-.631 2.682-.473-.316-.158-.473-.474-.789-.632.316-.157.631-.473.947-.63-1.736.315-2.525.788-3.945 1.893-1.262.947-1.736 2.051-2.682 3.471.473.158.789.158 1.262.316-1.262 1.578-2.525 2.525-4.103 3.787-.789.631-3.313 1.262-3.471 2.367-.158 1.105-3.472 1.736-4.26 1.894-1.105 1.262-1.578 1.262-1.894 1.42-.473 0-.316.315-.631.631-.79.473-1.42.631-2.21.473.79-.789 1.579-.946 2.525-1.578.632-.473 2.683-2.367 3.314-1.262.473-.789 2.051-2.525 2.84-1.894-.315-.789 1.263-1.262 1.42-2.209.158-.789.158-.947.632-1.42.315-.316.63-.473.315-.947-1.104.631-2.209 1.578-3.313.79-.316-.316-1.105-1.105-1.578-.948-.632 0-1.263.316-1.736.474-.158-1.105-.473-2.21-.631-3.472-.316.158-1.736 1.263-1.894 1.105-.473-.473-1.578-.947-1.893-1.578-.474-.631-.474-2.051-.631-2.84-.158-.632.315-1.105.63-1.736.632-1.105.632-1.42 1.736-1.263.947.158 1.105-.63 1.894-1.104.789-.316 1.578.315 1.893-.79.316-.788-.157-.946-.788-1.577.315-.158.473-.316.788-.474-.315-1.104-1.262-.157-1.893.316-.789.473-.947-.158-1.736 0-1.578.158-3.313.473-4.26-1.262.158 0 .315-.316.631-.316-.631-.158-1.736-.158-2.209-.947 1.105-.631 1.893-1.104 3.156-1.104 0-.158-.158-.316-.158-.474.947-.631 1.578-.631 2.682-.789 0 1.263.947 1.105 1.894 1.263.789.157 1.105-.158 1.893-.632-.315-.157-.63-.315-1.104-.473.158 0 .316-.158.473-.158-.315-.315-.473-.63-.157-.947-.947-.157-1.736-.157-2.525-.473-.631-.316-.631-1.42-1.42-1.736-.474-.158-2.525-.789-2.683-1.262-.158-.158.316-1.105.474-1.42 0-.158.473-.158.63-.158.79 0 1.894.158 2.368-.473.63-.79 1.104-1.578 1.735-2.21 1.263-1.104 2.84-1.735 4.419-2.051.946 0 1.735 0 2.524-.631 1.105-.947 1.105-.947 2.367-.316 1.105.631 4.26-.158 4.734 1.105.315.947 3.63.947 4.734 1.104 1.578.158 3.313.474 4.891.632 2.367.473 4.734.789 7.1 1.262 1.579.316 2.999 1.262 4.577 1.894.315.157 1.893-1.894 2.209-2.21.473-.473 1.262.947 1.893.632.79-.316 4.734-2.683 5.207-1.736-1.42.789-2.84 1.42-4.102 2.209 1.104.789 4.576-2.367 4.891-1.105.474-.473.79-.946 1.263-1.42.315-.315-.474-.473.158-.947 1.104 1.263 2.05 2.367 3.313 3.472.316-1.262.474-1.578 1.42-2.367.474.631-.473.789.316 1.262.315.158-.158.79-.316.947.474-.158 1.263-.158 1.736-.473.158-.158-.158-.631.158-.631.315 0 .473-.158.789-.158.946-.158 2.209.789 2.998 1.104 1.735.79 3.787 1.105 5.68 1.578 0-.157-.158-.315-.158-.473 1.105 0 1.736.631 2.84 1.262.79.474-1.577 1.263-1.735 1.42.789.316 1.578.632 2.367.632 1.42-.158 2.682-.158 4.102-.316.632 0 1.736-.158 2.21.473.63.947 1.262 1.894 1.893 2.683-.158-.473-.158-.789-.316-1.262 0-.316.158-.474.158-.632-.158-.946-.63-.789 0-1.578.316-.63 3.156-.63 2.525-1.578-1.262.474-2.367.947-3.787.947.315-1.262.789-1.104 1.893-1.42 1.105-.315 1.263-.473 2.367.158.316.158.474.789.631 1.104.158.474.474.316.947.474.947.158 1.578.473 2.525.789.631.315 4.576.631 4.734.158.315-1.105.315-1.578 1.578-1.578.788 0 1.577.473 2.366.63-.157.316-.63 1.421-.473 1.737.158.315 1.105.789 1.42.946-.315-1.262-.789-2.367.631-2.524.631-.158.947-.632 1.42-1.105.316-.315.158-.789 0-1.262-.473.158-.789.315-1.104.63-.158-1.261.789-1.42 1.578-1.42 0-.946-.947-.315-1.578-.473-.473-.157-2.051-.473-2.21-.946-.473-1.105-.473-1.736-.315-2.84 0-1.105.474-1.263 1.42-.948.158-.473-.157-.789-.63-.63.788-.474.946-.474.946-1.421 0-.947 0-1.262-.473-2.051-.316-.632-.158-1.42 0-2.21 0-.473.946-.315 1.262-.157-1.42-1.578 1.104-1.105 2.209-1.105 1.42 0 2.367.158 3.787.473-.631.79-1.42 2.683-2.21 3.156-.788.474-2.524 0-3.313 0 2.525.316-.315 1.894-.158 2.84 1.263-.157 1.894.948 2.21 2.052.157.79 1.42 1.736 1.893 2.367-.631.474-1.262.79-1.893 1.263.63.157 1.104.63 1.577.315.632-.473 1.105.158 1.736.316-.315.158-.631.473-.947.63.632.474.947.474.632 1.263-.158.79-.316.947.315 1.42.474-.63.631-.946.79-1.735 0-.316.315-1.42.788-1.105.316.158 1.42.631 1.578 1.105.158.63.631 1.42-.316 1.735 0-.157-.157-.315-.157-.473-1.736.947 2.05 4.418 2.209 2.525 0-.474 0-.79.315-1.105.158-.158.79-.473.79-.789 0-1.42 0-1.262 1.104-1.893-.474-.79-.947-1.105-.79-1.894.159-.947.632-.631 1.421-.473.473.158 1.893 0 2.21.473.63.79.946.947 1.735 1.105-.474.789.315 1.262-.158 1.736-.316.315-1.105.157-1.578.157.316.79.631 1.42 1.105 1.894.63.631.946 1.104.157 1.893-.473.632-1.578.947-2.05 1.263-.632.315-.948-.474-1.421-.79.316.474.473 1.105.789 1.579-.316-.158-.789-.316-1.105-.631 0 .157.158.315.158.473-.315-.158-.789-.158-1.104-.316-.316 0 0-.63-.316-.63-.631 0-1.42-.159-1.578.473.265.132.53.376.89.544-.335.307-.437.779-.588 1.336-.133.13-.284.241-.46.329-.789.473-1.104 0-2.05-.316-1.263-.631-2.526-.631-3.946-.631 1.105.473 2.052 1.105 3.156 1.578.79.316 2.051.316 2.84.316-.315.63-.946 2.051-1.42 2.367-.315.157-.789.473-1.104.473-.474 0-.79-.158-1.263 0-1.104.789-1.262.789-2.524.473-.79-.315-1.578-.473-2.525-.63.473.315 1.105.473 1.578.788-.13.13-.153.26-.245.302.729-.144.9-.13 1.665.33.473.157 1.105.788.316 1.104-.79.316-1.105.316-1.894.316-.315 0-.631.946-.789 1.104-.631 1.105-1.736 2.21-1.893 3.314l-.947 4.26c.631.158 1.736.158 2.209.474.473.473.789 2.051.947 2.682.473 1.105.63.79 1.735.474.632-.158 1.263.315 1.736.473 1.736.631 2.84 1.105 4.26 2.21.474.315 1.42 1.262 1.894 1.262.789.158 1.578.158 2.525.315.315 0 1.893 0 1.893.316 0 1.105-.158 2.21-.158 3.472 0 1.578 1.578 2.84 2.367 3.945.947 1.104 2.84-.947 2.683-1.894-.158-.947-.316-2.051-.474-2.998-.157-.474-.789-1.263-1.104-1.736.947-.631 2.998-1.42 3.629-2.367.631-.947.789-3.314 0-4.103-.473-.473-1.104-.947-1.578-1.578-.631-.947-.789-.789 0-1.578.947-.789.947-.63.631-1.893-.157-.631-.63-1.42-.315-2.052.315-1.104.315-1.42 0-2.524-.158-.79.158-.947.946-1.105 1.42-.158 2.525.947 3.945.316.79-.316 1.105 0 1.894.63.315.316 1.42.79 1.578 1.263.157.79.63 1.263 1.42 1.263.631-.158 1.104.157 1.735.473-.315.631-.63.789-.473 1.42.158.631.316 1.262 0 1.894h.473c-.315.473-1.262 1.104-.788 1.578.788-2.525 3.944 2.998 4.575-.474.158.158.474.158.474.316.315-.79.947-1.42.789-2.367-.158-.631.789-1.736 1.262-1.578 0 .316-.158.631-.158.947 1.42 0 2.21 2.84 2.84 3.945.316.63 1.42 1.893 1.42 2.524 0 .316-.63.947-.63 1.263 0 .158.63.631.789.631.315.316.946.473 1.104.947.316.473-.158.789.316.947 1.104 0 1.42 0 2.367.63.63.474 1.735.948.473 1.105-.79.158-1.42.474-2.051.632.473.157.946-.158 1.42-.316-.316.631-1.263.631-1.894.789-.63.158-.315 1.262 0 .947.316-.316.474-.316.79-.474.315-.157.157-.315.473-.473a3.044 3.044 0 011.577-.473c-.315 0-.473-.158-.63-.316.473 0 1.262 0 1.42.473.157.632-.474.632-.158 1.105.473-.789.946-.473 1.735-.158.632.158.158 1.263 0 1.578-.315.631.474.79 0 1.578-.157.316-1.262.947-1.578.947-.63.158-1.104 0-1.735.158s-.947.63-1.42 1.104c-.947 1.105-1.736 1.263-3.156 1.105-1.42-.158-2.84-.158-4.26-.158-1.263 0-2.525-.315-2.999 1.42-.157.474-1.262.631-1.735.79-.631.315-1.105 1.104-1.578 1.577-.79.947-1.263 2.052-2.367 2.683 1.736-.79 2.682-2.683 4.418-3.472 1.105-.63 4.418-2.367 5.207-.315-.158 0-.315-.158-.473-.158.789.631-.316.947-.79 1.42-.63.473-.946-.316-1.577.158.316 0 .947.789.947.789.473-.158.789-.158 1.104 0-.158.473-.315.947-.789 1.262h.631c-.315.947.632 1.578 1.263 1.736l-.158.158c.947.473 1.893.947 2.84.315 0 .158 0 .316.158.474.158 0 .473-.158.631-.158-.631-.789.631-1.894.947-2.525.789.316.315.947.158 1.578.63-.473 1.42.474.946.631-.63.316-1.262.632-1.893.474.158.158.316.315.316.473l-2.367.947c-.316.158-.632.158-.947.473-.316.316-.473-.473-.789-.157-.473.473-1.105 1.262-1.578 1.893-.473.316-.789-.158-1.105-.315-.788-1.263 1.263-2.21 1.894-2.84.473-.316.316 0 .473.315.474.473.79-.158 1.105-.474-.473 0-1.262-.157-1.736.158 0-.315.316-.631.474-.947-.632-.157-1.42.632-1.894.947-.316.158-.316-.315-.789.158-.158.158-.631.158-.947.158.474 1.262-1.893.789-2.05 1.42l-.317-.316c-.315.632-.63.79-1.262 1.105-.473.158-.473.473-.631.947-.316.631-1.578 2.998.158 2.84 0-.158-.158-.158-.158-.315.158.157.316.315.316.473-.474.316-1.105 0-1.736-.158-.316 0-.158.79-.631.79-1.263.157-1.894.157-2.998.946.763-.153 1.378-.453 2.131-.615-.086.04-.111.142-.238.142h.631c-.473.315-.946.473-1.42.63-.473 0-1.262-.157-1.578.316 1.263.158-.473 2.367-.946 2.84.315-.473-.632-.788-.79-1.42 0 .632.947 1.579.632 2.21-.316.63-.947 1.42-1.105 2.051h-.158c0-.473.158-.947.474-1.262-.316-.158-.158-.79-.79-.631.159-.474.159-.947.316-1.42 0 0 .474-.947 0-.632-.946.79-.789 1.263-.473 2.525-.316-.158-.631-.473-.947-.473.316.315.947.473 1.105.788.158.316-.158 1.105-.158 1.42.158.474.789.316.631 1.105-.158.631-.631.631-1.104.79.473 0 1.42-.159 1.262.63 0 .316-1.105.316-1.42.316.158.158.315.316.473.316-.158 0-.315.157-.63.157.315.632.63 0 .946.316-.316.158-.631.316-.79.473-.157.158-.472-.315-.788-.157-.316.157-.631.946-.947 1.42-.158.315-.789.158-1.104.473-.316.316-.474.79-.947 1.105-1.42.789-1.578 1.104-2.367 2.682-.316.632-.158 1.894.158 2.683.631 1.262.947 2.367 1.42 3.63.158.63.316 2.524-.158 2.997-.315.316-.631.947-1.104.316l-.947-.947a3.917 3.917 0 00-.631-1.42c-.316-.473-.474-.789-.316-1.42l-.315.316c-.316-.79.473-2.052-.316-2.525-.789-.474-1.105-1.42-1.894-1.263-.473.158-.946.474-1.42.158-.315-.315-.789-.789-1.262-.789-.789-.158-2.051.79-2.21-.473-.157 1.104-2.524.315-3.313.947.474 0 2.367.315.947.946.158 0 .947.316.947.474.158.315-.316.473-.474.473.158-.473-.473-.631-.946-.947 0 .316 0 .474-.158.79-.316-.632-.631 0-1.105-.316-.63-.474-.789-.79-1.578-.631-.315.157-.946-.158-1.262-.316-.631-.316-1.736.473-2.367.789-1.104.473-3.629 2.367-3.629 3.945 0 .473.631.947.631 1.42 0 .316-.315.79-.315 1.105-.158.789-.632 1.735-.632 2.682 0 2.21.316 3.787 1.578 5.681.79 1.105.947 1.894 2.21 2.21.315.157.63.63.788.63.474-.157.947-.315 1.42-.63.474-.159.79-.316 1.263-.316.315 0 .631.473.789.315.158-.158.473-.158.63-.315.159-.158-.157-.474 0-.474.474-.315.632-.473.79-1.104.315-.947.158-2.052 1.262-2.525.474-.158 1.736-.474 2.21-.474.63 0 2.208-.315 1.735.947.631-.158 0 1.42-.316 1.42.158.158 0 .316.474.316l-.474.473v.158l.158-.158c-.315.632-.315 1.105-.473 1.736-.316-.315-.316-.631-.316-.947-.158.158-.315.474-.473.632.789 0-.158 1.42.158 2.051.157.473-.631 1.42-.947 1.736 1.104.315 2.051.158 3.314.315.473 0 .789-.315 1.262-.315s1.262 0 1.736.315c.946.474 1.578 1.105 1.42 2.367-.158.79-.316 1.42-.316 2.21 0 .473-.473.788-.473 1.262-.316 2.051 2.209 5.365 4.102 4.576.818-.35 1.376-.7 2.059-.731-.392.171-.673.467-.954.889-.158.158.315.789.473.947-1.104.473-.946.63-1.42-.632-.158.632-1.262-.473-1.893-.473-.316 0-.474.316-.632.158-.315-.316-.63-.474-.946-.79-.631-.473-1.894-1.104-2.367-1.893-.316-.63-.158-1.578-.631-2.051-1.263-1.42-2.052-2.683-3.787-3.156-1.263-.316-3.63-.473-4.576-1.578-.947-.947-1.894-1.894-2.84-2.683-.632-.63-1.42 0-2.21.316-1.578.473-3.313-.631-4.891-1.262-1.262-.474-2.525-.947-3.787-1.578-.316-.158-1.105-.316-1.42-.632-.79-.789-1.578-1.735-2.525-2.524-.789-.79-.316-1.263 0-2.367.158-.632-1.104-2.052-1.42-2.683-.473-.631-.789-1.105-1.262-1.578-.947-.789-1.736-1.578-2.683-2.525-.158-.158 0-.789.158-.946 0-.316-.473-.632-.631-.947-.631-.79-1.105-1.578-1.894-2.21-.63-.473-1.42-.788-1.578-1.735-.157-.474-.473-2.84-.946-2.998-.79-.316-1.578-.79-2.525-1.105.316.947.473 2.683 1.104 3.472.947 1.104 1.736 1.893 2.21 3.156.315.789.473.946 1.104 1.42.473.315.631.946.79 1.578.157.63.472 1.104.472 1.893 0 .947.474.316.79.474.315.315.946.789.946 1.42-.158.631-.631.789-.947.315-.63-1.104-1.578-1.735-2.682-2.367-.316-.157-.158-1.42-.158-1.735 0-.474-.789-.947-1.262-1.263-.316-.315-.79-.158-1.105-.473-.473-.473-.946-.79-1.42-1.262.474 0 1.894-.158 1.105-1.263-.631-.947-.947-1.42-1.894-1.893-.631-.316-.789-1.42-1.104-2.052-.474-1.104-.947-2.209-1.263-3.314-.473-1.262-2.051-2.367-3.313-2.682-.947-.316-1.263-.158-1.736-1.105-.473-.947-.947-2.051-1.42-2.998-.631-1.578-2.051-2.367-2.525-4.103-.631-2.209-.631-3.471-.473-5.838.158-1.894.158-3.787.315-5.681.14-1.677-.215-2.735-.737-4.161l.098.056c.909.303 1.17.218 1.075-.216zm50.631-37.109c.101-.092.223-.17.373-.23.79-.473 1.105.947.158 1.105 0 .158.158.473.316.631.473-.631.631-.473 1.104 0 .316.316.947.158 1.263.473.473.316 2.998 1.578 2.051 2.525 1.105-.158 1.262 0 2.21.631-.316.158-.79.474-1.579.79-.631-.159-2.84-.474-2.682-1.737-.79.316-.631.947-1.42 1.263-.474.158-.947.947-1.42 1.262-.316.158-.474-1.42-.632-1.578-.157-.158-1.735.316-2.051.316.316-.474 1.262-1.105 1.42-1.42.158-.158-.158-.631-.158-.947.158-.473.158-.789.316-1.262a8.75 8.75 0 00.144-.486c.347-.337.575-.793.803-1.25a1.988 1.988 0 01-.216-.086zM-52.068 71.88c-.157-.947 2.36-.789 2.045-.158 0 .158.158.158.315.158-.157.316-.315.473-.63.316 0 .473-.314.789-.786.789-.472 0-.787.63-1.101.63-1.259 0-1.102-2.524.157-1.735zm29.826 7.73c-.158.945 0 1.732.157 2.834.158.315.474.472.632.63-.632.787-2.84-2.834-2.683-3.778 0-.158 1.894-.472 1.894.315zm-28.876-8.677c.158-.473.473-.789.63-.946.316 0 .632.157.948.315 0 .158-.158.158-.158.316l-.158-.158c-.158.316-.789.789-1.262.473zM2.225 19.96c-.317 0-.634.157-.951.314-.317-.314-.793-.47-1.11-.784 1.11-.47 1.11-.314 2.061.47zm-12.002 5.845c-.789-1.105 0-1.42.947-1.578.631-.158 1.578-1.262 2.051-1.736.79-.63 1.105-1.104 2.051-1.104.316 0 .79-.158 1.263-.158.473.158.947.473 1.262 0-.158 0-.315-.158-.473-.316.946-.315 1.262 0 2.209.474-.631.158-1.894.947-.474 1.104-.157 0-.63 0-.789.158 1.105.631-.473 1.736-1.104 1.894-.947.315-1.894-.79-.947-1.42-.158-.158-.789-.316-.789.157 0 .79-.473.474-.789.631.316.158.631.474.316.79-.474.63-.79-.474-1.105-.316-.473.158.316.789 0 1.104-.315.316-.789.316-1.104.474.158-.631-.474-1.263-.79-.79 0 .316.474.948-.315.79-.473 0-.946-.158-1.42-.158zm-3.786 11.361c-.158.158-.474.158-.948.158-.157-.79.474-1.263.79-1.736.474-.473-.474-.947.79-1.104-.632-.632.473-1.578.947-2.052.316-.158-.79-1.42-.948-1.893 1.422-.316 2.685-.474 4.106-.631 1.105-.158 2.21 1.262 3.474.946-.158.158-.158.316-.158.474.947-.947 2.053-.631 3.158-.158.474.158.947.631 1.421.947.632.473.79.789.158 1.262-.79.789-2.526 1.105-3.632 1.578-.474.315-.79.158-.947.789-.158.631-.79 1.104-1.421.789l-.316 1.893c-.474.316-.79.474-1.263.631-.158 0-.158-.473-.316-.315-.158.158-.474.158-.632.315-1.263.632-1.263.632-2.21-.473-.474-.789-1.264-.947-2.053-1.42zm-54.281 28.876c-.158.473 0 .315 0 .631v.158c-.316 0-.631 0-.79.315-.63-.157-1.104-.315-1.577-.946.947.157 1.42-.474 2.367-.158zm91.519 17.193v.473c.158-.158.158-.158.158-.315.473.157.315.788.315 1.103.158-.315.316-.473.631-.315.158.157-.157.63-.157.945.119-.119.238-.148.357-.223-.382.358-.501 1.052-.357 1.484.157.63.473-.157.473-.473.096 0 .191 0 .252.035-.178-.454.195-1.007-.094-1.295-.316-.316-.631-1.104-.79-1.576-.192-.385-.738-2.731-.99-3.911a.229.229 0 01.044-.03h-.05c-.02-.095-.04-.183-.055-.261l.105-.053s-.315-.158-.315-.316c-.275.458-.39.703-.315.92.003-.06.018-.047.042.005l-.034.017a.603.603 0 00.108.168c.026.066.054.14.086.211-.497-.182-1.176-.401-1.308.255-.315 1.261-.157 1.104.79 1.261-1.105.315.315 1.576.473 2.049l.315.315c.158-.63 0-.315.316-.473zm1.672 2.714a.638.638 0 00.064.123c0-.062-.025-.1-.064-.123zm-2.452-6.5a.423.423 0 01-.008-.021l-.001.025a.979.979 0 01.009-.004zM5.96 60.04c.281-.089.572-.113.899-.025.214.02.43.057.64.102-.498-.778-2.78-.296-3.069.717.261-.13.499-.273.725-.405a1.47 1.47 0 01.065-.069c.209-.167.462-.268.74-.32zm-1.53 1.267c-.474.473-.632.631-1.263.631-.632 0-1.58 0-1.738-.789 0-.158-1.105 0-1.42-.473 0-.158-.948-.473-1.106-.473-.158.157.947.63 1.105.63-.316.79 1.421 1.42.316 1.579-.316.157-.632-.158-.79.157-.315.316-.158.474-.631.632l.158.157c-.316.316-.79 0-1.264 0v.158c-.474 0-.79-.158-1.263-.158.631.79 2.053.947 2.842 1.105.632.158 2.685-.158 2.37-.947.631-.631 1.105-.473 1.894-.789.474-.158.79-.789 1.264-1.104h-.316c.474-.474.79-.632 1.263-.79.474-.157.79.158 1.106-.315-.316.158-.474.158-.79 0 .316-.158.632-.158.948-.315-.316 0-.632 0-.948-.158h.79a1.798 1.798 0 00-.098-.03 3.248 3.248 0 00-.9.025c-.267.085-.528.229-.804.39-.274.311-.431.73-.725.877zm3.159-.947c.473.474.631.158.79 0a8.391 8.391 0 00-.88-.243c.046.07.076.151.09.243zm-11.213-8.836l.473-.473c-.63-.158-1.104.63-1.735.789-.79.157-1.263.157-1.894-.158.158-.631 1.263-.79 1.736-1.105-1.105-.473-1.42-.473-2.525-.158-.63.316-1.42.474-2.051.79-.789.315-1.578.315-2.367.63-.316.158-2.051.158-.789.947a.34.34 0 00.316-.315c0-.158-.158-.158-.158-.316.473-.158 1.736-.158 2.367 0 0-.158 0-.158-.158-.315.789-.158 1.736 0 2.367.473-.316.631-1.42.158-2.051.316.315.157.473.315.63.63l-.946.474c.473.631-.316.631-.789.789.631.473 1.262.158 1.736.316.473.157.946-.79 1.262-1.105.631-.473 1.736-.158.789.473-.316.158-.473.474-.631.632-.158.157-.474.157-.631.315.789.79 1.735-1.42 2.682-1.104-.158-.316-.473-.632-.789-.632.79-.946 2.525.474 2.998-.473h-.473c0-.631.473-.315.631-.631.316 0 .316-.316.473-.631-.157 0-.315-.158-.473-.158zM31.09 93.497c.631.157 1.105-.158 1.262 0 0 0-.157.157-.157.315 1.262.631 3.313-2.051 4.26-1.262-.316.158-.789.631-.947 1.104.474-.315.947-.315 1.263.158.315.474.63.158 1.104.474.158.157 2.051-.632 2.367-.632-.158.632.473.474.789.632.316.157.316.63.631.946-.473-.158-.947-.473-1.104.158-.79-.789-2.052-.316-2.525.473l-.158-.157c0-.158.158-.158.158-.316-.158.158-.316.158-.473.316v-.316c-.474.473-1.263 1.736-1.42 2.367.63 0 .788-.947 1.262-1.262 0 .473-.474 1.262-.631 1.735-.158.631-.474 1.42-.474 2.21 0 1.104.631 3.944 1.736 1.735.631-1.104.316-1.893.158-3.156-.316-1.262.789-1.578 1.104-2.367v.79c.316-.316.158-1.105.947-1.105-.631-.79.631-.631.947-.316.473.316 1.104.158 1.262.947h-.158c.316.473.474 1.105 0 1.42-.157.158-.63.79-.63.947.157.473 1.104-.474 1.42-.474.473 0 .473 1.42.63 1.894.316-.473.632-.789.947-1.105.158-.157 0-.789.158-1.104.316-.631.947-1.42 0-1.894.631-.315.316.474.947.474 0 .158 0 .158-.158.315.158.158.158.158.158.316.315-.316.947.158 1.262 0 .158 0-.158-.631.473-.316-.63-.63-.473-2.05-1.577-2.209-.79-.315-1.894-.315-2.84-.473-.058 0-.168-.016-.308-.043a.518.518 0 01-.166-.115l-.065.065a9.011 9.011 0 01-.41-.107c.002-.037.002-.076.002-.116-.298-.149-.315-.157-.449-.025-.407-.145-.724-.311-.656-.448.158-.316 0-.473-.158-.631-.158-.316.158-.474.158-.631-.316-.632-.789-.316-.473-1.263-1.42.158-1.42-.315-2.052-1.42-.315-.631-.789 0-1.104-.158-.474-.157-.947-.473-1.42-.473.473.316.157.631-.316.947.158-.158.316-.316.316-.631-.474.315-.316.789-.79.946 0-.157.159-.315.159-.473-.79 0-.474.789-.947.947-.474.315-1.105.473-1.736.789l-1.578 1.578zm20.986 4.891c.316-.315.632-.473.79-.789-.632.158-1.736 1.105-2.21.947-.789-.316-1.735.158-2.524.315-1.42 2.21 1.42.158 2.05.79.948.946 2.999-.79 1.894-1.263zm-5.838 2.686c-.789 0-.947 0-1.578.633-.473.316-.631.791-1.262.475 0-.475.473-.634.789-.792-.158-.316-.316-.158-.316-.475-.473.633-.789 1.108-1.104 1.741.315.159.63.159.946.317 0 .158-.157.158-.157.317 1.262.158 1.735-.475 2.84-.95 1.104-.317 1.736-.792 2.682-1.583-.315-.317-.157-.475-.473-.633 0 .633-1.893 1.108-2.367.95zm60.908 80.477c-1.263 1.736-2.367 3.471-3.63 5.207-.63.79-1.262 1.42-1.262 2.525l-.473 7.574c-.158 1.736-1.894 3.472-2.683 4.734-.315.631-.63 1.578-1.42 1.578-.631 0-2.209-.158-2.682.158-1.736 1.105-3.314 2.367-5.05 3.472-.315.315-.315 2.682-.315 3.156 0 .473 0 1.42-.316 1.893-1.42 1.736-2.84 3.63-4.102 5.365-1.263 1.578-2.525 3.314-3.787 4.892-.316.316-4.26-1.42-4.892-1.578-.315 1.42 1.894 1.578 2.21 2.683.157.63.63 1.735.473 2.209-.158.473-.79 1.262-1.105 1.736-.789 1.262-1.893 1.262-3.314 1.578-1.262.315-1.893.315-3.313 0 .315.789.473 1.262.158 2.05-.158.474 0 1.263-.316 1.579-1.262.947-2.051.473-3.471-.158 0 .631-.158 1.578 0 2.367.157.473.946 1.262.63 1.736-.473.947-.788 1.893-1.262 2.682-.473.947-.63.79-1.42 1.105-.789.158-.946.947-1.42 1.578-.315.473.79 1.42.947 1.736.315.473 1.578 0 1.262.947-.315.789-.473 1.104-.947 1.735-.473.632-1.104 1.105-1.42 1.894-.315 1.105-.63 1.105-1.578 1.736-.946.473.158 3.471.316 4.418 0 .316 0 1.262.316 1.578.63.631 1.42 1.262 2.05 1.894 1.263 1.104 2.052.946 3.63.946l-4.26 1.894c-1.105.473-1.42.158-2.525-.316-1.736-.789-3.471-1.578-5.05-2.524-.946-.474-.946-1.42-1.42-2.367-.946-2.21-2.524-4.419-2.208-6.943.473-3.788.789-7.417 1.262-11.204.473-3.63.631-7.259 1.262-10.888.79-4.419 1.736-8.995 2.525-13.413.473-2.683 1.104-5.365 1.578-8.206.158-1.104.631-2.524.631-3.629 0-.947-.316-2.21-.316-3.156 0-.631 0-2.21-.315-2.84-.316-.632-1.578-1.105-2.051-1.42-1.105-.79-2.052-1.42-3.156-2.21-1.105-.789-1.42-1.42-2.052-2.682-1.262-2.367-2.524-4.892-3.944-7.259-1.105-2.051-2.052-3.945-3.156-5.996-.631-1.263.473-3.472.789-4.734.158-.631.158-2.052.63-2.525l1.894-2.367c1.42-1.736 2.525-2.683 2.21-5.207-.158-.632-.474-.79 0-1.263 0 0-.158-.789 0-1.104.157-.79-1.42-1.42-1.263-2.21.037-.223.066-.384.077-.507.429.332.811.765 1.343 1.296 0-1.42 1.736-3.313 2.367-4.576.158-.315 1.578-.63 1.894-.63.946-.317 1.893-.632 2.84-1.106.947-.315 2.525.474 3.314.632 2.366.473 4.575 1.104 6.785 1.578 1.262.315 2.524.315 3.471 1.262 1.736 1.736 3.63 3.472 5.365 5.207 1.104 1.105 3.63 1.105 5.05 1.42 1.262.316 2.366 2.525 3.313 3.63.789 1.105 1.736 2.21 2.524 3.314.158.315.632 1.104.947 1.262a78.24 78.24 0 015.523 2.051 78.246 78.246 0 015.523 2.052c1.578.631 3.155 2.21 4.418 3.156.315 0 1.893 0 2.051.315.316.474.473 1.263.79 2.052.472 1.736.472 1.736-.474 3.156zM50.103 155.48a3.352 3.352 0 00-1.181-.597 2.418 2.418 0 00-.782-.1 1.79 1.79 0 01.15-.058c.632-.316.632-.316 1.105 0 .603.362.745.355.708.755zm6.946-51.392a.18.18 0 01.078-.016 5.25 5.25 0 00-.078.016zm11.123-16.43c1.42 0 2.84.316 3.787 1.42-1.104.79-2.998-.789-3.787-1.42zm.474 5.365c.157.316.315.474.315.79.79 0 1.736.157 2.525.157-.474.631-.79 1.104-1.578.789-.79-.316-1.894-.473-1.262-1.736zm-15.148 45.444c-1.105 0-2.052.158-2.998-.158.157-.157.788-.63.788-.789 0-.63-.946-.315-1.104-.473-.789-.473-.789-1.262-1.578-1.42-.789 0-1.42-.631-2.21-.631-.472 0-.472-.316-.946-.158-.315.158-.631 0-.947-.316.316 0 .474 0 .632-.157-1.42-1.42-2.998 1.735-4.419.946.632-.315.947-1.262 1.736-1.42 1.105-.315 1.894-.631 2.998-.473 1.894.158 3.63 1.104 5.207 2.209.158 0 .158-.158.158-.158.473.631 1.42 1.105 2.21 1.105.157 0 .473.63.788.63.474.159.79.474 1.262.79-.473.158-1.104.315-1.577.473zm11.203 2.84c-.474-1.262 1.104-.63 1.893-.473 0 0 .158 0 .158.158-.316.473-1.736 1.104-2.051.315zm15.148-55.86c-.631.474-.947.631-.631 1.42 0 .315.473.315.63.472.159.158.159.789.159 1.104.473-.158 2.05-.788 2.366-.315.474.472.632.472.474 1.26-.158.316.63.473.789.946.158.788.63 2.207.158 2.838-.316.63-.474.63-1.105.315-.789-.158-.631-.315-.473-1.104-1.105.158-1.42.946-2.525 1.104-.158-.473.158-.788.631-.946-1.262-.63-2.525-.63-3.787-.473-.315 0-1.262.158-1.578-.315-.158-.315 0-1.576.158-1.734 1.262-1.261 1.893-1.891 2.525-3.625.315-.946 1.578-2.522 2.682-2.05-.158.316-.315.789-.473 1.104zm-37.555 9.47l.251-.251c.083.019.16.036.23.05a.758.758 0 00.308.043c-.315.315-.315.315-.157.315-.158 0-.474 0-.632-.157zm-.606-.499c.142.05.295.098.446.141-.007.111-.037.2-.155.2l-.316-.316a7.2 7.2 0 01.025-.025zm3.122 1.13c-.314.315-1.1-.158-1.57-.158 0-.158-.157-.158-.314-.158.47-.473.628 0 1.099-.158.314-.157.628-.157.785.316l.157-.158c.157.158 0 .316-.157.631l-.157-.157zm4.743 45.444c.63-.947 1.893-.158 2.524 0 .158.158.158.315.316.473-.631-.158-.947.474-1.262.316-.631-.158-1.105-.474-1.578-.79zM1.9 22.807c.158.158.315.316.473.316-.631.473-1.262.157-1.893 0 .315-.474.946-.316 1.42-.316zm225.8 80.316c-.316-.316-.316-.947-.474-1.105-1.104-.63-1.262 1.105-1.262 1.736-.631-1.105-.79-1.578-.316-2.682-.473-.158-1.578-.316-1.893-.79-.316-.315-.316-1.42-.316-1.893 0 0-1.42-.631-.789-.789.79-.158.947.631 1.578.158-.473-.473-.789-.473-.473-1.105a1.705 1.705 0 011.104-.473c.79.158 2.051.158 2.683.473-.474.158-.947.79-.947 1.42.473-.788.789-1.104 1.578-1.262-.474-1.262-.79-.473-1.894-.789.158-.473.631-1.262.316-1.735 0-.316-.473-1.42-.947-.947-.315.63-1.104 0-1.578-.158-.473-.158-1.104.631-1.578.631-.946.158-.946-.473-1.262.947 0 .315-1.262.631-1.578.789-.789.315-.789.315-.947 1.262 0 .316-.63.79-.946 1.105.63.158 1.42.63 1.42 1.42 0 1.104.157 1.578.63 2.682.316.631 1.105.79 1.421 1.42.631.947.789 1.263 1.736 1.736-.79.316-.947.158-1.105 1.105-.158.473-.473 1.104-.631 1.578-.316.63-.158 1.104-.158 1.735 0 .79.316.631.947.79.631.157.631.63 1.104.788.632.158 1.105.316 1.736.474.79.315 2.051-.158 2.84-.316-.157-.947-.315-1.893-.157-2.84.315-1.42-.316-.79-.947-1.736h.473c-.158-.316-.158-.789-.315-.947-.158-.157-.631 0-.79-.157-.465-.467-.166-.933-.007-1.4.047.15 2.08.288 2.532.137.158-.631-.473-.947-.789-1.262zm179.408-49.387c0 .789.158 1.104-.63.789-.632.158-.158.947 0 1.578-1.105-.158-1.42-.316-2.21-.947-.473-.316-1.578.316-1.735-.316-.158-.789 0-1.735-.947-1.735s-1.894-.158-2.84-.158c-.474 0 .473-1.736-.79-1.578-.63.158-.473 1.736-.473 2.367 0 1.104-3.313 1.42-4.102 1.578.789.473 1.735.789 1.735 1.736.158 1.262.631 1.735 1.263 2.682 0 0-.474.79-.632.79-.315.157-.946-.159-1.262-.159-.473-.157-1.42-.63-1.893-.315-1.736.947-3.472 2.051-5.207 3.156-1.42.789-2.84 1.262-3.472 2.84-1.104-1.105-1.262-1.262-2.84-1.105-1.578.158-1.578.158-2.525 1.578v-1.42c-.473.158-1.42.79-1.893.79-.631-.159-1.263-.474-1.578.157-.947 1.42-1.736 2.84-2.683 4.26.474.158 2.052.316 1.894.947-.474 1.42-.474 1.42.315 2.525-1.42.631-2.682 1.263-1.893 2.998 0 .158-1.105.632-1.42.79-.631.157-1.263.157-1.263.946 0 .947.316 1.736-.63 1.894-.947.315-1.105.158-1.263 1.42-.158 1.262-1.578 2.367-2.367 3.314-.947-4.26-3.945-12.15 1.105-14.676 1.42-.63 2.366-.946 3.155-2.367.79-1.262 1.736-1.893 2.998-2.84.79-.631 1.894-.947 2.21-2.051.157-.79.473-1.736.63-2.525 0-.158 1.263-.316 1.42-.316-.946-.157-1.42-.315-2.208-.157-.631 0-.947 1.104-1.263 1.577-.789 1.105-2.209 1.894-3.155 2.683-.474-1.262-.474-1.736-.158-3.156-.947.631-1.263.79-2.367.79-1.105 0-1.42 0-2.21.63-1.261 1.105-2.366 2.367-3.47 3.63.315.315 1.262.789.946 1.262-.158.158-1.262.316-1.578.316-1.262.157-2.367.315-3.629.473.316-.316.789-.631 1.262-.947-1.104-.158-2.366-.473-3.471-.63-.316-.159-1.105.63-1.42.788-.316.316-.79 0-1.262 0-1.105-.158-2.052-.158-3.156-.158-.631 0-2.683-.315-3.156.158-1.894 1.736-3.63 3.472-5.365 5.207-1.578 1.736-3.314 2.999-5.207 4.261.315.631.789.631 1.262.631.631 0 .631 0 .947.631 0 .158.316 1.263.473 1.263 1.42.158 1.578.473 2.21-.947.63-1.105 3.944 1.578 3.786 2.525-.473 2.209-.946 4.26-1.42 6.47-.473 2.051-1.262 3.156-2.367 4.891-1.104 1.736-1.893 3.314-3.313 4.577l-2.683 2.682c-.473.474-1.578.474-2.209.631-.315 0-.63-.946-.947-.946-.315 0-1.104.63-1.262.789-.947.473-.947.789-1.42 2.05-.631 1.895-2.051 2.841-3.471 4.262 1.42 1.262 2.84 2.84 2.524 5.05-.158 1.577 0 1.893-1.262 2.524-1.105.473-1.736.473-2.84.473.157-.789.157-1.736.315-2.525.158-1.104-.789-.946 0-1.893.474-.474.158-1.263-.473-1.263-.631.158-1.736.474-1.894-.473-.157-.631.474-1.893.632-2.367 0 0-1.42-.947-1.578-.947-.474 0-1.42.79-1.894 1.105-.631.316-1.262.789-1.893 1.105-.474-1.263.63-2.21 1.42-2.999-.79-.63-.79-.789-1.736-.315-.631.315-1.104.63-1.578 1.104-.631.474-1.104.79-1.893 1.105-.158 0-1.42.473-1.105.947.473.473.947 1.104 1.42 1.736.474.946.474.789 1.42.315 1.263-.631 2.367 0 3.787.316-1.578 1.262-3.155 2.682-4.733 3.945.63.63 1.42 1.104 1.893 1.893l1.42 3.314-2.367-.473c.79.63 1.736 1.262 2.525 1.893l-1.893 1.42c.788.158 1.577.474 2.366.632-.946 1.893-1.735 4.102-2.998 5.68-1.262 1.736-2.367 3.63-4.26 4.419-2.051.947-4.103 1.736-6.154 2.525-.631.157-1.262.473-1.893.63-.632.159-.474.159-.316.79.158.473.158 1.262-.631.947-.158 0-.316-.947-.474-1.263.158 0 .474-.315.632-.315-.79-.474-2.052-.947-2.84-.316-.79.473-2.367 1.262-2.683 2.21 0 .315-.631 1.42-.473 1.735.473.631.789 1.262 1.262 1.894.631.946 1.42 1.735 2.051 2.682.947 1.105 1.42 1.42 1.42 2.84 0 .947.474 2.841-.157 3.472-1.894 1.578-3.63 3.156-5.523 4.576-.631-.63.315-1.578-.158-2.051-.631-.789-1.262-1.42-1.893-2.051-1.105-1.105-1.894-1.894-3.472-1.894 0-.316.158-.789.158-1.105-1.42.158-1.105.316-1.262 1.894-.158.947-.632 1.736-.947 2.683-.158.473 0 .789 0 1.262.158.789.158.631.789.631.315-.158.789 2.21.947 2.683.315.63 1.735 1.262 2.209 1.736.473.315 1.42 1.104 1.578 1.735.315.79 0 1.894.157 2.84.158.79.631 1.737.947 2.526-1.262-.158-2.051-.947-2.998-1.736-.947-.631-.947-1.105-1.42-2.367-.316-.947-.473-2.84-1.105-3.472-.946-.947-1.735-1.893-2.682-2.84-.473-.474.158-2.84.158-3.472 0-1.262-.158-2.525-.316-3.787-.158-2.367-.789-4.418-1.578-6.628-.473.632-.947 1.105-1.42 1.736-.631.631-.473.631-1.42.474-.947-.158-.947 0-.789-1.105.158-.473.473-1.578.316-2.051-.632-1.42-.947-2.683-2.21-3.63-.946-.789-1.42-2.209-1.893-3.471-.473.315-1.262 1.104-1.894 1.262l-3.313.473c-.158 0-.79 0-.947.158-.158.158.158.947 0 1.105-.473.631-1.104 1.104-1.578 1.736-1.578 1.578-2.998 3.156-4.576 4.734-.473.473-1.578.789-2.209 1.104-.789.316-.473.947-.473 1.894 0 .789.158 2.051 0 2.84-.158.79-.79 1.894-.631 2.683.315 1.262.473 1.736 1.262 2.682.631.79.947 1.578 1.42 2.525.789 1.736-2.209 3.314-2.367.947-.158-.947-.158-1.894-.158-2.998.158-.947-.315-1.105-.946-1.894 0 .79.157 1.578-.474 1.894-.63.473-1.262.789-1.893 1.262-1.736-3.156-3.314-6.627-4.734-9.941-.473-.79-1.104-1.894-1.262-2.84v-2.21c0-2.209-.158-4.26-.158-6.47l-1.42 1.894c-.474.631-.474.473-1.263.473-.788-.157-1.735-1.735-2.366-2.367.63-.157 1.893-.157 2.05-.946-.315.157-.788.157-1.104.157-.946-.315-1.893-1.104-2.682-1.578-.631-.315-.947-1.735-1.262-2.367-.316-.63-4.892.316-5.68.474-1.737.315-3.315-.474-5.05-.79-.631-.157-1.578 0-1.894-.788-.789-1.42-.63-1.736-1.893-1.263-1.105.316-1.894.158-2.998 0-.79 0-1.263-.946-1.894-1.262-1.262-.631-1.262-.789-1.893-2.051-.316-.79-.474-1.894-1.42-2.052-1.42-.158-1.42-.158-2.525 1.105-.316.315.947 1.893 1.262 2.367a75.01 75.01 0 012.683 4.892c0-.79.157-1.42.315-2.21.631 1.105.474 2.21.474 3.472 1.104 0 2.998.158 3.944-.473.947-.632 1.894-2.21 2.683-3.156.158.946-.158 2.524.631 2.998.473.315.947.789 1.42.947.474.157.947 0 1.263.473.315.473.63 1.42.946 1.42.631.158.316.631.316 1.263 0 .63-1.42 1.893-1.894 2.367 0-.158-.157-.474-.157-.632-.474.79-.632 1.263-.632 2.21 0 .789-.315.789-.946 1.104-.632.316-1.42.631-2.052.947-.473.158-.315 1.42-.789 1.578-.315.158-.946-.316-1.262-.158-.631.158-1.104.474-1.578.631-.631.316-.631 1.263-1.262 1.42-1.105.474-2.367.79-3.472 1.263a1.232 1.232 0 00-.63.631c-.316.474-.632.316-1.105.474-.947.157-2.052.473-2.998.789-.79.315-.947 1.104-1.736 1.104-1.262 0-1.262.316-1.578-.947-.316-1.262-.473-2.682-.789-3.945-.316-2.051-1.262-3.471-2.367-5.207-.631-.947-.631-1.105-1.736-1.578-.63-.316-.63-2.21-.788-2.84-.158-1.105-.79-1.894-1.263-2.84-.315-.632-.947-.79-1.262-1.421-.631-1.262-1.42-2.525-2.051-3.787-.316-.631-.632-1.578-1.42-1.42.157-.79.157-1.578.315-2.367-.316.789-.631 1.735-.947 2.682-.946-1.104-1.578-2.051-2.209-3.471-.789.946.474 2.524.947 3.313.789 1.736 1.736 3.472 2.525 5.208.473.947.315 2.209 1.104 2.998.316.316 1.105.947 1.262 1.42.158.947.316 1.736.474 2.683.158.473.158 1.578.473 1.893.474.474 1.263.947 1.578 1.578.79 1.105 1.105 2.84 1.578 4.103.158.474 1.42.474 1.736.79.473.63.947 1.104 1.42 1.735.789.947 2.367 1.894 1.104 3.156.79.158 1.736 1.894 2.367 1.736 2.21-.631 4.576-1.263 6.785-1.894.474-.158 1.736-.631 2.052 0 .315.316-.474 2.525-.632 2.998-.315 1.736-1.735 3.472-2.524 5.05-.79 1.42-1.263 2.84-2.367 3.945-2.84 2.998-5.996 5.68-8.047 9.152-.474.79-3.472 4.734-2.998 5.523.946 1.263.946 1.42.788 2.998-.157 1.42 0 1.42.79 2.525 1.262 1.578.788 4.26.946 6.312.158 1.578-1.104 3.314-2.367 3.945-.789.316-2.209.631-2.682 1.263-.631.789-1.42 1.578-2.051 2.367-.632.63-1.263.946-.947 1.893.315.631 1.104 2.052 1.104 2.683 0 .789.158 2.682-.315 3.314-.316.63-2.051.946-2.683 1.262-.946.473-.63.789-.789 2.051 0 .632 0 2.367-.315 2.84-1.105 1.579-2.21 3.472-3.472 4.893-.789.789-1.578 1.42-2.366 2.05-.474.317-1.263 1.421-1.894 1.579-2.051.473-4.103.789-6.154 1.262-.947.158-1.893.474-2.84.632-.473 0-1.42-1.105-1.736-1.42-1.104-.947-1.104-.947-.947-2.525.158-.632-.63-1.736-.789-2.21-.473-1.104-.946-2.367-1.42-3.471-.315-.631-1.262-1.263-1.735-1.736-.474-.473-.474-2.051-.474-2.525-.158-1.42-.473-2.682-.63-4.103-.316-1.893-1.263-3.313-2.052-4.891-.474-1.105-1.105-2.052-1.578-3.156-.158-.474.158-1.42.158-1.894.473-2.367.473-4.418 1.578-6.47 1.104-2.051.473-3.471 0-5.523-.632-2.209-1.105-4.26-1.578-6.47-.158-.63-1.105-1.42-1.42-1.893-.79-1.105-1.42-2.051-2.21-2.998-.315-.474-.157-1.263 0-1.894.158-1.42.316-2.682.474-4.103.158-1.262.158-1.262-.474-2.209-.788-1.104-.63-1.104-1.893-1.104-.631 0-2.051.473-2.525-.158-.63-.79-1.42-1.736-2.051-2.525-.316-.316-4.734.316-5.207.631-.947.474-2.051 1.105-2.998 1.578-.79.474-1.105.158-2.051 0-.947-.158-1.42-.473-2.367-.158-1.105.316-2.21.79-3.314 1.105-.631.316-1.104-.473-1.578-.79-.947-.788-2.051-1.577-3.156-2.366-1.262-.947-2.051-1.42-2.84-2.84-1.42-2.367-2.682-4.734-4.102-7.101-.316-.632-.79-1.42-1.263-2.21-.158-.315.474-1.735.631-2.051.158-.631.947-1.894.79-2.525-.316-1.104-.474-2.209-.79-3.314-.157-.63-.789-2.051-.63-2.84 0-.473.63-1.105.788-1.578 1.262-2.367 2.683-4.734 3.945-7.1.947-1.737 2.051-2.21 3.63-3.157.788-.631 1.104-.631 1.261-1.578.316-1.262.474-2.525.632-3.787.315-1.42 3.155-1.736 3.787-3.156.269-.808.538-1.96 1.198-2.477-.305-.372-.448-.887-.094-1.152-.631.315-1.104-.79-1.893-.316-.79.473-1.263-.158-1.894.316 0-.632.158-1.105.158-1.578v-.79c0-.315-.316 0-.473-.157-.632-.79-.158-.947 0-1.894.157-.789.789-2.21.473-2.998-.316-.79-.158-1.736 0-2.525-.473.474-.789-.315-.631-.789.158-.473 1.104-.473 1.42-.473 0-.158-.158-.158-.158-.316.79-.631 1.105.316 1.894.158.946-.316 1.42-.316 2.366 0 .79.316 1.42-.158 2.21.158.473.158 1.42.315 1.893.158 1.42-.316 1.262-2.999 1.262-4.103 0-1.105.158-1.42-.789-1.736-.473-.316-.63-1.262-.473-1.578-.473.158-.316-.158-.473-.316-.316 0-.79-.157-.947-.157-.473-.316-.631-.474-1.105-.474-.315 0-.473 0-.789-.473.158 0 .316-.158.474-.158-.474-.158-.631-.316-.631-.789.63 0 1.262 0 1.735-.316.947-.63.474.632 1.105.474.158 0 1.42-.316 1.42-.631 0-.632-.158-.947-.473-1.578.315.157.789 0 .946.315.158.474.158.474.474.474.789 0 1.104 0 1.893-.316-.158 0-.315-.158-.473-.158.473-.473 1.104-.631 1.736-.947.789-.473-.158-.946.315-1.578.158-.315 1.42-.63 1.736-.789.631-.315 1.104-.157 1.736-.157-.316-.158-.947-.158-.947-.474l.631-.158c.158-.157 0-.473.158-.63.315-.474.473-.79.631-1.579 0-.315.631-.158.789-.473.789-.79 1.578-.316 2.367-.631 0 0 0-.474.158-.474.315-.158.473-.158.789-.158.315 0 .789.158 1.104.158-.158-.789.473-.631.947-.631-.316 0-.947-.631-.631-.947.473-.315 0-.315-.158-.947-.158-.63.158-.946-.316-1.42-.315-.473-.315-.631-.315-1.262 0-1.105.158-2.21 1.262-2.21.789 0 1.42-.946 2.21-1.262-.632.79-.79 2.367.315 2.683-.506.886-1.419 1.264-1.679 2.112-.076.027-.15.06-.216.094 0 .095.057.234.146.38-.001.08.003.165.013.254.158.947 1.105 1.894 2.051 1.42 0 .158-.157.474-.315.79.946.473 1.735-.79 2.524-.947.316 0 1.105.473 1.263.789.158.63.63.63 1.104.946.158-.157.158-.315.158-.473h-.789c.473-.316 2.525-.473 2.998-.947.51-.638 1.847-1.173 2.84-.937.01.937 1.264.936 1.736.464.158-.158.158-.631.316-.79.157-.157.315 0 .473-.157.316-.316.789-.473.947-.789-.158.316-.474.473-.631.789 1.578.789.63-2.051.63-2.683 0-.63.159-.946.474-1.42.316-.473.158-1.104.631-1.42 1.42-.947 1.736 1.262 2.683 1.262.473 0 .789-.789.789-1.262 0-.316.315-1.578.158-1.578-.158-.158-.316.316-.474.158-.315-.158-.473-.474-.631-.631-.158-.158-.473-1.42-.316-1.42.947-.474 2.052-1.105 3.156-.947.79.157 1.578.157 2.367.315 1.105.158.158-.158.79-.63.315-.159.946 0 1.42-.317.315-.157 1.104.158 1.42.158-.158-.789-1.579-.947-2.21-1.262 0-.158 0-.474.158-.631l-6.627 1.42c-.158 0-1.105.315-1.263.158-.473-.632-.63-.79-1.262-1.105-.789-.316-.789-.316-.631-1.262.158-.632.158-.947 0-1.578-.158-.474-.631-1.578-.473-2.052.157-.473.946-1.104 1.262-1.42.789-.789 1.736-1.42 2.367-2.21.315-.315.789-1.42 1.262-1.577.316-.158 1.105.316.79-.631-.316-1.105-1.105-1.578-2.21-1.578-1.578 0-1.578 0-2.682 1.104-.632.632-.947 1.263-.474 2.21.474.789-3.629 2.84-3.945 3.313-.946 1.263-2.682 3.314-1.578 5.208.474.789 1.736.789 2.21 1.735.315.632-.79 1.105-1.263 1.578-.947.79-1.578 1.105-1.735 2.21-.158.946-.158 2.367-.474 3.156-.473 1.262-1.42 1.262-2.367 1.42-.315 0-.315.473-.473.947-.158.473-.473.315-.947.315-.789 0-.789.158-.947-.63-.157-.317-.315-1.106-.157-1.421.157-.79-.947-1.736-1.42-2.367-.158-.316 0-.79-.158-1.105-.158-.315-.474-.789-.631-1.262 0-.474.315-1.105-.158-1.263-.474-.157-.474-.789-.631-1.262-.316 1.105-.474 1.262-1.42 1.894-.632.315-1.105 1.104-1.736 1.42-.947.631-3.472.315-3.472-1.263 0-1.893-.789-3.629-.63-5.523 0-1.578.157-1.578 1.261-2.524.632-.631 1.263-.947 2.052-1.263.947-.315 1.735-.63 2.367-1.42.63-.789 1.262-1.42 1.893-2.051 1.42-1.263 2.051-2.998 3.156-4.734.552-.92 1.265-1.733 2.014-2.532a.692.692 0 01-.12.163c.358-.358.614-.564.74-.82.335-.352.67-.707.995-1.072 1.263-1.262 2.367-2.84 4.103-3.63l.35-.143c.133-.045.261-.084.439-.173l.034-.017c.85-.335 1.698-.642 2.548-.937.687-.092 1.234-.281 1.745-.592l.564-.189c.631-.157 1.105-1.262 1.736-1.735.631-.474 1.578-.474 2.367-.474-.79 1.105-1.262 1.42-1.578 2.84.789-.157 1.578-1.577 2.051-2.209.158.474.316.79.316 1.263.315-.631.789-1.105 1.104-1.578.158-.316 1.105 0 1.42 0-.157.315-.473.789-.63 1.104.946.79.473-1.104 1.262-.789.789.316 1.735.632 2.524.947.631.316-.63 1.105-.946 1.105-.632.158-1.42-.158-2.052-.158.316.631.947.473 1.263 1.105.157.157.946-.158 1.262-.158.631 0 1.42.315 1.893-.316.158-.315 1.105.316 1.42.474-.157.789-.788.315-1.262.157-.315 1.42 2.21.947 2.84.947 1.42 0 2.052.474 3.314 1.105s2.21 1.104 3.471 1.578c.947.315 2.21.947 2.525 2.051.316 1.105.316 1.105-.315 2.052-.316.473-.474.946-1.105 1.104-1.42.474-1.736.474-3.156.158-2.524-.631-4.576-1.262-6.943-2.367.79.631 2.683 1.894 2.683 2.998 0 .947-.158 2.998.789 3.472 1.104.473 2.367 1.736 3.471 1.262.631-.315.316-1.262-.315-1.262-.632 0-.79-.631-1.263-1.105.947-.947.947-.789 2.21-.315l2.84.946c-.158-.315-.947-2.209-.79-2.209.79-.473 1.42-.947 2.21-1.42.473-.158 1.104-.947 1.578-.79.789.159 1.578.474 2.367.632.157-.473.473-1.262.315-1.736 0 0-.734-1.175-.786-1.116.157-.629.314-1.412.47-2.04 0-.315-.788-1.104-.946-1.262.947 0 1.893.158 2.84.316.631.157 1.105 1.104 1.578 1.735-.473 0-1.736-.157-2.051.316-.474.631.315 1.105.789 1.736.473.631 1.104.315 1.893.158.947-.158.316-.79.79-1.42.157-.316.946-.474 1.261-.632.79-.315 1.736-.789 2.525-1.104 1.262-.632 2.525-1.105 3.787-1.736.316 1.104.316 1.104 1.42 1.42.79.158 1.105-1.105 1.736-1.105.947.158 1.578.316 2.367-.157.947-.474 1.262-.474 2.367-.158-.158.158-.316.473-.474.789 1.105.315 1.105.473 1.894-.631.765-.918.343-1.095-.402-1.967a.254.254 0 00.048-.142c1.576-.716 3.869-.4 5.56.215 1.105.473 2.368.947 3.472 1.42.79.316 1.578 1.263 2.367 1.736 0-.473.474-1.894.158-2.21-.789-.63-1.736-1.262-2.525-1.893-.473-.473.316-1.578.631-2.209.316-.473-1.104-.947-1.42-1.262.79-.79 1.736-1.42 2.525-2.052.631-.473.789-2.209 1.105-2.84.083-.25.417-.367.882-.403-.026.185-.045.416-.093.708a51.613 51.613 0 002.209-.47 1.54 1.54 0 00-.02-.086c.943.145 1.84.344 2.229.409-.316 1.104-.79 2.051-1.105 2.998-.158.631.79 1.736.947 2.209.315.947-.947 4.734-.316 5.207.79.632 1.736.632 1.263 1.736-.316.474-.632 1.894-1.105 2.21-.947.473-1.736 1.104-2.682 1.577-.316.316-1.578-.157-2.052-.157 1.105.946 2.367 1.735 3.945 1.262 1.262-.316 2.525-2.051 3.472-2.998.946-.947-1.736-2.525.473-3.156.473 0 1.578-.631 1.893-.316.474.631 1.105 1.263 1.578 1.894 0-.79 0-1.578-.63-2.052-.948-.63-.948-.63-2.052-.473-.158 0-2.367.473-2.367.316-.158-.632-.789-1.578-.473-2.21.315-.63 1.104-1.578.63-2.209-.315-.473-1.42-1.578-1.104-2.209.474-.789 1.263-.947 2.052-1.262.63-.316.157-1.736 0-2.052.473-.158 1.42 1.105 1.104 1.578-.631 1.263-.473 1.263.158 2.367.473.947 3.787.947 4.576.947-1.105-.473-2.367-.947-3.472-1.42-1.262-.631 1.105-1.578 1.578-1.736 1.736-.473 2.367-.158 3.945.473.474.158.947.474 1.42.79.474.315 1.105 0 1.578 0-.158-.474-.315-1.42-.631-1.736-.316-.316-1.42-.316-1.893-.316-.632 0-.632-2.367-.79-2.998 1.736-.158 3.63-.316 5.365-.474.947-.157 2.052-.157 2.998-.315.79 0 .474-.79.474-1.42 0-1.263-.158-1.263.947-1.894.789-.473 1.578-1.105 2.366-1.42 1.578-.631 3.63-.631 5.365-.947 3.314-.631 6.47-.947 9.626-2.21.63-.157.315-1.42.946-1.735l2.84-1.42c1.105-.631 3.157-.631 3.945.631-.946.316-1.735.473-2.682.79 1.262.157 2.682.472 4.103.63-.632.631-1.105 1.105-1.736 1.578.789 0 1.578.158 2.367.158 0-.316-.158-1.42.158-1.42h1.735c.947 0 1.894-.158 2.683.315.789.632 2.051 1.105 2.682 1.894.158.316.947 1.105.79 1.262-.159.158-.316 1.105-.632 1.263-3.787 2.367-7.416 4.576-11.203 6.943 2.524-.789 5.207-1.42 7.732-2.21-.79-.157-1.42-.157-2.052-.315.79-.631 2.052-1.262 2.998-.631 1.42.947 1.736.947 3.472.789 2.209-.158 4.418.158 6.627.473-.473.316-.789.474-1.262.79.473.157 1.42.946 2.05.946.948 0 1.737-.158 2.683-.158.474 0 1.894.158 2.052-.473.157-1.262 0-1.262 1.262-1.262.789 0 1.736.157 2.525 0 .63-.158 1.893-.632 2.524-.474.632.158 1.42 1.578 1.894 2.052.315.315-.316 1.893-.316 2.367 0 .315 0 2.367.316 2.524l2.367 1.42c.473.316 1.42-1.577 1.735-1.893.79-.947.632-1.105 1.578-.473.947.63 1.105.946 2.21.63.788-.157 1.577-.63 2.209-.315.473.316 1.577 1.105 2.05.947.79-.473 1.736-.789 2.525-1.105-.315-.473-1.104-1.262-.789-1.735.316-.316 1.105-1.736 1.42-1.736 1.579.158 3.156.473 4.734.631 1.263.158 2.367.631 3.63.947 1.262.315 2.998.473 4.102 1.104.631.316 2.367 2.999 2.998 2.84 1.578-.315 3.156-.473 4.734-.788 1.262-.158 2.525.473 3.787.789.789.158 1.104.158 1.42.947.316.789.316.946 0 1.893 1.42.316 2.367.947 3.787.631 1.578-.315 2.683-.473 4.26-.157.632 0 1.42.315 1.894 0 .789-.474.789-.474 1.42.157.631.474 1.262 1.42 1.894 1.736.473.158 1.42-.158 1.893-.158-.158-1.104-.316-2.051-.473-3.156 2.209.158 4.418.316 6.785.474 1.893.158 3.629 1.42 5.207 2.209a94.938 94.938 0 015.523 2.998c1.104.79 1.262.79 1.735 2.052.474 1.42.316 1.893 1.736 1.893-.158-.631-.316-1.104-.473-1.736 1.262 0 2.209 0 3.471.474.947.315 1.736 1.42 2.525 2.051-.474.474-1.105 1.263-1.736 1.42-.473.158-1.42-.157-1.894-.315zM236.134 43.248a.332.332 0 01-.072.072c-.63.473-2.366-.947-2.524-1.42.315-.158.473-.316.789-.474.275.138 1.875 1.119 1.855 1.68l-.12.057.072.085zm-21.847 5.754c0-.006.001-.01.003-.012l-.003.012zm-34.24 28.561l.014.014a1.642 1.642 0 00-.015-.003v-.01zm.63.316zm-32.647 34.179c.313.31.701.615 1.09.537.473-.158 1.262-.473 1.577-.316.158.158.947.79 1.105.632.789-.474 1.578-1.105 2.367-1.42 1.577-.632 3.471-1.42 5.049-1.579.473 0 1.104-.315 1.578-.157.315.157.947.473 1.262.473.474 0 .79-.631 1.262-.631.316-.158.79 0 1.105 0 1.105 0 1.894.315 2.84-.316.79-.473 1.578.158 2.367.474-.473 1.42-.631 1.42 0 2.682.316.631-.789 1.42-1.262 1.894.631.63 1.42 1.735 2.209 1.893 1.262.316 2.682.79 4.102 1.105 1.105.316.79 1.42 1.894 1.893.947.316 1.893.158 2.682.79 1.263.788 1.894 1.104 2.683-.474.315-.316-.316-.947-.158-1.262.158-.316.473-1.263.79-1.263 1.261-.315 1.893-.473 3.313-.157.315.157.157.789.473.789.631 0 1.262.157 1.894.315.473 0 .473.316.789.79 0 .157.63-.316.788-.316.947.315 2.052.63 2.999.946 1.104.316 1.262.316 2.366-.157 1.105-.474 1.263-.79 2.367-.158 1.42.63 3.472.473 4.103-1.263.473-1.104 2.367-4.418 1.578-5.523-.474-.789.63-2.209.315-2.524-.315-.316-.789.157-.946.315-.316.158-.632-.315-.947-.315-.474.157-.79.946-1.105 1.104-.315.158-1.104 0-1.42 0-.947 0-1.262-.947-2.051-1.104-.473-.158-.947-.474-1.105.157-.315.632-.315.632-.946.79-.79.157-1.894-.79-2.367-1.105-.947-.474-2.683-3.314-1.578-4.576-.316 0-.79.157-1.105.157-.105-.84.559-1.26 1.2-1.448-.313-.13-.756-.14-1.2-.287-.789-.316-1.104-.158-1.735-.316-.316 0-.632.158-.947.316-.158.157.158.63 0 .789-.631.473-.947 0-1.42-.316-.474.473 0 1.105.315 1.578.474.789.474.789-.158 1.42.79.631 1.736.79 1.578 2.052-.473-.316-.946-.79-1.42-.158.79.158.79.63.316.947-.474.473-.158.63 0 1.262-.631-.158-.947 0-1.262-.631-.316-.474-.474-.316-.947 0-.316-1.42-.631-1.578.473-2.525-1.104 0-1.104-.158-1.736-1.105-.315-.63-.63-1.578-1.104-1.893-.947-.631-.631-1.263-.473-2.367 0-1.105-.316-1.105-1.105-1.736-.947-.947-2.21-2.051-3.471-2.21-.316 0-1.105-1.104-1.263-1.42-.315-.946-.473-1.262-1.262-1.893-.316 1.105-.79.631-.947-.158-.158-.789 0-.473-.789-.315-.789.315-1.262.315-.789 1.262.158.316-.473 1.105.158 1.578.473.473 1.262.789 1.578 1.262.316.474.316 1.263.789 1.736.473.474.789.947 1.578.947.473 0 1.42 0 .631.631.631.631 4.103 2.052 3.156 3.156-.316-.158-1.263-1.42-1.736-1.104-.473.473-.473.473-.631 1.104 0 .631.316.474.631.79.947.788-.631.946-.631 1.42 0 .598-1.138 1.766-1.253.939a1.5 1.5 0 00.306-.15c.316-.316 0-.474.474-.79.315-.157-.474-2.209-.632-2.209-.157 0-.789 0-.789-.473.158-.474-.473-.631-.789-.474.158-.473-.946-1.104-1.262-1.104-.631.158-1.104-.631-1.578-1.105-.789-.947-2.051-1.262-2.367-2.525-.315-1.104-.315-1.262-1.262-1.735-.473-.316-1.105-.474-1.42 0-.316.315-2.84 2.209-3.156 2.05-.789-.157-1.736-.472-2.525-.788-.473-.158-1.104.789-1.42 1.105-.158.157.316 1.42 0 1.893-.315.474-1.42.631-1.893.947-1.42.789-1.894 1.894-2.683 3.314-.315.473.79.947.316 1.578-.316.315-1.262 1.104-.947 1.578-.315 0-1.104 0-1.262.315-.158.316-.474 1.105-.79 1.105-.946.158-1.735 0-2.682 0-.715 0-1.17.778-1.72 1.041zm27.828-3.5c-.423.474-.5 1.13-.23 1.67.474.631-.947.789-1.104.316-.158-.947-3.472-.79-2.21-2.21.158.316 1.894.474 2.367.316.315 0 .77 0 1.177-.093zm.244-.224c0 .056.003.106.009.15a2.18 2.18 0 01-.253.073 1.66 1.66 0 01.244-.223zm15.648-4.716c.109-.012.207-.018.289-.018 1.262 0 1.893 0 2.998-.63l-.632-.316c-.157.789-1.42-.158-1.893.315-.27.216-.522.433-.762.649zm2.392-1.209c.371-.514 1.399-.229 2-.229.946.158 1.104-.158 1.893-.631.473-.316 1.262-.789 1.893-.789.79.158 1.578.316 2.367 0-.158.316.158.631.473.789.632.316.316-.473.947.316.158.315 1.736.63 2.21.789.788.473 1.42-.158 2.208 0 .947.157 1.736-.316 2.525-.79.631-.315.316-1.577-.158-2.05-.631-.632-1.42-.79-2.051-1.421-.631-.631-1.262-1.42-2.21-1.578-.157 0-.788-.473-.946-.631a4.795 4.795 0 01-1.105-.79c0-.024.008-.052.021-.083-.533.496-1.066-.025-1.598.242-.632.315-1.894 1.578-2.683.946.474-1.262-.158-1.104-1.104-1.578.473-.315 2.366-.946 1.104-1.42-.315-.158-.789 0-1.262 0-.316 0-.631-.473-.947-.631.631 0 1.262.316 1.578-.316-.473.316-2.051-.473-2.367 0-.315.474-1.42 1.263-1.578 1.894 0 .316 0 1.105-.158 1.42-.157.316-.946.316-.946.631-.316.947-.316 1.736-1.105 2.367-.947.632-.789 1.578-.315 2.367.224.449.926.898 1.314 1.176zm10.362-7.488c.473 0 .789.158 1.105.158-.316-1.104.473-1.42 1.262-1.42-.316-.316-.947-.631-1.105-1.105h1.105c-.316-.789.789-.157.947-.63.157-.632-.631-.316-.947-.316-.789.157-1.736.157-2.367.946v-.315c-.947.158-1.262.315-2.051 1.104 0 0 .158-.157.158-.315-.947-.158-.632 1.104-.158 1.578.473.631 1.262.315 2.051.315zm-23.9-17.1c-.163-.1-.405-.12-.543-.244.198.049.382.128.543.245zm-22.49 28.453c.788-.47 1.104-.784 1.577 0-.315.157-.473.47-.789.627-.315-.156-.473-.47-.789-.627zm235.898 122.609c-.158.158.158.789-.158.473-.316-.158-1.105-.158-1.105.473 0 .947-.789 2.052-1.262 2.999-.473 1.104-1.262.63-2.051.315.315-.473 1.262-1.42.947-2.051-.158-.158-.79-.316-1.105-.316-.316-.158-.631-.631-.947-.789.79-.63.947-.789 1.263-1.893.315-.631-.316-1.42 0-2.21-.632.158-1.42-2.05-1.578-2.682l-.316.316c-.315-.631-.631-1.263-.789-1.736.474.158.79.631 1.42.947 1.105.473.474.315.947 1.42.158.316.316.631.473.789.158.316 0 .789 0 .947.474.946.947.315.947-.474.79.316.316 1.736 1.105 2.052 1.262-.158 1.42 0 2.524-.79 1.105.158.158 1.736-.315 2.21zm-13.888 15.148c.314-.474 0-.947.47-1.105 1.255.947 0 .631-.47 1.105zm7.576-10.729c.316-.316.631-.473.947-.79.158.474.315 1.106.473 1.58-.63.79-1.104 1.421-1.735 2.211-.632.632-.632.79-.158 1.58a1.232 1.232 0 01-.631-.632c-1.105.79-1.578.947-1.894 2.369-.316.947-1.262 2.053-1.736 2.842-.473.79-2.05.158-2.524-.315-.316-.316-2.525 0-1.736-1.106.631-.948 1.42-2.053 2.21-3 .315-.317 1.104-.474 1.42-.632.473-.158.788-.632 1.262-.948.315-.316.946-.632 1.262-1.106.315-.473.158-1.105.473-1.579.316-.474.631-.158.79-.947.157-.79.473-.79 1.104-1.106.315.632.473.948.473 1.58zm-60.907-60.274c.473-.635 1.104-.635 1.893-.476.789.158 2.367.317 2.051 1.745-.63-.476-.946-.793-1.735-.635-.316 0-.632-.158-.947-.317-.158-.159 0 .476-.316.476-.315 0-1.578 0-.946-.793zm6.31-55.073c-.314-1.262 0-1.104.473-2.051.314.316 2.516-1.105 2.359.473 0 .158-.472.79-.63.947-.157 0-.471-.631-.629-.473-.629.315-.786 1.578-1.572 1.104zm30.455 59.172c.316.158.631.473.947.79.473.946-.79.472-1.105.157-.158-.158-.158-.474-.315-.79-.316-.315-.316-.63-.316-1.104.473.158.473.79.789.947zm-197.24-75.267c.316-.315.79-.473.79-.788.315-.158 0-.474.315-.632.158 1.105 0 1.578-.316 2.683-.315 0-1.262-.79-.788-1.262zm15.622-35.187c-1.105-.631.158-1.262.158-.473h-.158v.473zm-2.683 6.627c-.157-.947 0-2.367 1.42-2.209-.315.474-.788.79-.315 1.262-.473.158-.789.474-1.105.947zm230.218-15.148c.79.158 1.736.79 2.525 1.105-.473 1.104-1.262.947-1.893.158-.474-.632-1.42.315-2.21-.316-.157-.158-.473-.789-.157-1.105.315-.157 1.42.158 1.735.158zm-242.999 47.022c-.157-.631-.946-.315-.473-.947.158 0 .316.158.473.158.316-.315 1.894-1.104 1.736.316-.158.63-.158 1.42-.316 2.051 0 .631-.63.316-.63.631-.159.631-.474.474-.947.158-.474-.473 0-.473.157-1.105 0-.157-.315-.315-.315-.473 0-.158.315-.631.315-.789zm19.882-35.187c-.631.473-1.42.63-1.893 1.262.315-.631 0-.947-.316-1.262.947-.158 1.262-.316 2.209 0zM169.79 76.14c.316-.157.473-.473.316-.946h.473c-.158.473 0 .63.315.63-.788-1.735 2.21 0 .316.316l.473.474c-.789.158-.63.789-.789 1.42-.157-.473 0-.947-.63-.947-.474.158-.632-.63-.474-.947zm20.513 38.02c-1.42 0-2.367 0-3.63-.47 0-.157.158-.471.316-.628.79.47.947.627 1.894.47.473 0 1.42.157 1.42.628zm11.045-1.096c-.315.317-.947.635-.789 1.27-.315.159-2.998.952-2.367-.476.316-.477 1.263-.16 1.578-.16.474 0 1.105-.475 1.578-.634zm-33.15-36.386c.002-.174.027-.33.071-.474.283-.102.602-.121.725.252.47.158.47.789 0 .947-.219 0-.591-.385-.795-.725zm176.74 23.131c.158-.315.158-.63.158-1.104 0-.474.632-.79.474-1.263-.158-.315-.474-2.682.315-1.735.632.789 1.105 1.735 2.052 2.209 1.262.63 1.262.946 2.366-.158.158.631-.946 1.893.632 1.893-.631.632-1.263.79-2.052.79-.315 0-.789.315-.946.63-.158.158-.316 1.105-.316 1.105-.473.158-1.578-.631-1.893-1.104-.158-.158-.79.157-1.105.315-.158.158-.631-.315-1.105-.158-.157.79.79.474.947.947.158.473-.315.316-.473.316-.316 0-.474.63-.79.473-.157 0-.63-1.578-.63-1.736.157-.473.157-.473.63-.789.474 0 .474-.63.474-.946.474.157.79.157 1.263.315zm-35.818 80.632c.473-.316 1.578-.158 1.104.63-.63.79-1.104.159-1.104-.63zm7.574-32.19h.952c.794.631.953 1.105.16 2.052-.318-.79-.795-1.42-1.112-2.052zm-1.42 21.938c.158-.632.947-1.106.315-2.054.474-.947.632-1.42 1.42-1.895.632-.473 1.736.316 2.367.474.474.158.316-.158.79-.158.315 0 .788.316 1.104.158.631-.474 1.104-1.421 1.736-1.421-.474 1.263-1.263 3-2.84 2.053-.632-.316-1.579 0-2.21 0-.63.158-1.104-.474-1.578 0-.789 1.105.474 3.316 1.578 2.053.474-.474.158.158.631 0 .474-.158.474-.316.947-.316.474 0 1.42-.632 1.105.474-.947-.79-1.42 1.737-2.683 1.263.474.474.631.474.947.948l.473.947c0 .316-.315.632-.315.79.315.632 1.104.158.789 1.105.158-.473-1.263.632-.947.632-.473.158-.947 0-.789-.632.158-.79-.631-.631-.789-1.263 0-.158.473-1.263-.158-1.263-.946.158-.315.473-.315 1.105v1.737c0 .316-.316.474-.316.79 0 .316.316.79.158.948-.158.315-1.262.158-1.42-.158-.158-.158.315-1.738.315-2.211.158-.948-.473-.316-.789-.79-.473-.79-.157-.948.158-1.737.316-.632.158-.948.316-1.58zm4.102-19.413c.947.315 1.105.473 1.578 1.262.158.316-.473 1.42-.473 1.894 0 .315.158.946-.158.946-.473 0-.315-.315-.631-.473-.789-.315 0-1.262.473-1.736-1.578.632-1.42-.315-1.42-1.893.158 0 .474-.158.631 0zm2.525-1.105c.631 0 1.42-.315 1.578.632.158.63.316 2.366-.631 1.104-.158-.473.315-.473-.158-.789-.316-.315-.789-.473-.789-.947zm-.947.474a1.689 1.689 0 00-.274.166c.103-.27.07-.573-.041-.797.63 0 .63.63 1.104.63v.79a1.901 1.901 0 01-.789-.79zm-.473.473c0-.102.066-.204.199-.307a.873.873 0 01-.2.307zm2.682 2.84c0-.157-.157-.315-.315-.63v.63c-.631-.315-.158-1.735-.79-1.262-.157-.316-.157-.631-.157-1.105.316.316.631.474.947.316 0 .789.63 1.42.315 2.051zm-1.735-1.893s.072 0 .119-.05c-.09.362.023 1.028-.12 1.312-.315.474-.63.947-.788 1.578-.158-.947.63-1.893.789-2.84zm.119-.05a.535.535 0 01.038-.108.15.15 0 01-.038.109zm.038 2.567c-.789-.157 0-.628.158-.941.947.157.474 1.097-.158.94zm24.457-68.474c.63-.789-.787-1.105-.472-1.578.157-.631.472-1.736.314-2.367-.157-.631-.314-.631.158-.947.315-.315.472 0 .63-.157.472-.474.157-1.263-.315-1.736 1.102-.947.787.947 1.102 1.578.63 1.42-.315 2.051-.158 3.313 0 .316.472.632.63 1.105.157.473.315 1.105.472 1.736.315 1.42.63 2.367 1.26 3.471-.788 0-.63-1.42-1.417-1.262-1.102.315-.945.631-1.417 1.893-.315.947 0 1.105.472 1.894.315.631 1.102 1.736.472 2.367.158-.474-.314-1.42-.944-1.263-.63.158-.63.947-.787 1.578-.472-1.104-.315-1.262-.315-2.367 0-.315-.315-.789-.157-1.104.472-.474.472-.631.314-1.262-.314-1.105-.63-1.105-.157-2.21.472-.789.315-1.735.315-2.682zm7.417 92.624c-.473 0-.789.157-1.262.157.158.316.158.947.473 1.105.316.158.79.316.947.631.631 1.262.473 1.578 1.736 1.578-.316.789.315.631.947.789-.474.473.63 1.262.946 1.578-.473.158-1.262-.473-1.893-.631-.79-.158-1.578 0-2.21-.631-.788-.79-1.577-1.578-2.208-2.367-.316-.474-2.052-.316-2.525-.474-.473 0-.631 1.42-1.105 1.736-.946.631-1.735.316-2.84.316-.631 0-.947-1.578-1.42-1.42-.947.157-1.893.157-2.84.315.158-1.42.315-1.262 1.578-1.578-.316-.789-.631-1.736-1.105-2.524-.158-.474-1.262-.632-1.735-.947-1.105-.474-2.052-.947-3.156-1.42-.947-.316-.947-.316-1.105-1.42-.315.473-.789.946-1.104 1.42-.474-.79-.79-1.42-1.263-2.21.947-.315 1.578-.473 2.525-.157 0-.158.158-.474 0-.631-.789 0-1.736.315-2.525-.158-.315-.158 0-.79-.315-.947-.474 0-.79-.158-1.263-.158.632-1.262 1.894-1.578 3.156-1.262.79.158 1.105 0 1.105.947.158.789.315 1.42.63 2.209.316.63.632.789 1.263 1.104.158.158 1.105-1.262 1.263-1.42.473-.631 1.735-1.262 2.524-.947 1.578.632 3.156 1.105 4.576 1.736.947.316 2.21.631 2.998 1.105.631.315 1.263.789 1.736 1.104.631.316.473 1.105.789 1.578.631.79 2.84.158 2.682 1.894zm3.31-2.367c-.63 1.42 1.732-.316 1.89-.316 0-.315-.158-1.736.63-1.262.472.315.945 1.104 0 1.42.787.789-.473.631-.473.947-.315.63-1.102.946-1.575.946-.787.158-2.362-.315-2.835-1.104.315-.158.788 0 1.418 0 .472 0 .787-.789.945-.631zm-3.152 56.331c1.42.474 0 5.365-1.42 5.207-1.105-.315-1.736-.63-2.367-1.893-.473-.947-.631-2.367-.473-3.471.789.315 1.42.63 2.209.946.473.158 1.578-.63 2.051-.789zm6.785-56.647c0-.315-.158-.473-.315-.631.315-1.578-2.84-2.051-2.525-2.84.631.473 1.42.947 2.051 1.42.158 0 .158.315.316.473.158.316.473 0 .473.158.474.631.316.631 0 1.42zm-29.033 10.257c-.474.315-1.105 0-1.578 0 0-1.263.789-.316 1.42-.79.63-.157.473.474.158.79zm-7.259-12.627c.316-.784 1.894-.157 1.736.627-.158 0-2.21.627-1.736-.627zm33.62 30.93c.946.79 1.735 1.578 2.366 2.052.158 1.735.79 3.787.79 5.68 0 1.894-.947 4.103-1.42 5.996-.317 1.578-2.053 2.683-2.368 4.26-.316 1.736-.158 4.734-2.21 4.734-1.262 0-1.42.158-2.367 1.105-.316.473-1.42.789-1.894.316-.947-1.105-.789-1.578-1.894-.632-.789.79-.947.632-2.21.474-1.735-.316-3.313-.79-3.787-2.998 0-.631-.631-2.052-1.262-2.052-.79 0-.632-1.893-.632-2.682-.473 1.262-.473 2.051-1.736 1.736.79-1.263 1.736-2.367 1.263-3.945-.79 1.578-1.736 2.525-2.841 3.787-.473-.631-.947-1.42-1.42-2.21-.79-1.262-.79-1.42-2.052-1.893-1.894-.789-3.63-.946-5.682-1.262-.473-.158-1.578.789-2.051 1.105-.632.315-1.578-.158-2.368.157-.63.316-1.893.631-2.21 1.263-.157.157-.473 1.104-.63 1.104h-1.894c-.79.158-1.736.158-2.525.316-1.263.158-1.42.473-2.368 1.42-.63.631-1.578.315-2.367.315-.79 0-1.578-.946-2.21-1.42-.789-.63.79-1.42.947-1.735.316-.632-.315-2.525-.473-3.314-.316-2.051-.947-3.787-1.736-5.523-.316-.63-.947-1.262-.631-2.051.315-1.105.473-1.262 0-2.367-.632-1.736-.316-3.313.473-5.05.158.316.316.79.474 1.263.473-1.262.63-1.578 1.736-2.367.789-.63 1.42-1.104 2.367-1.262l4.261-.947c1.105-.315 1.105-1.262 1.578-2.367.947-2.209 3.157-3.471 4.893-4.891.158-.316 1.578-1.736 1.894-1.578 1.104.631 2.051 1.104 3.156 1.736.316-1.263.474-2.367 1.263-3.472.63-1.104 1.736-.473 2.998-.315-.158-.632-.158-1.105-.158-1.578 1.105 0 2.21.157 3.315.315 1.42.158 1.578.158 2.683 1.263-.632.789-1.263 1.42-1.42 2.366-.316 1.263-.79 1.578.315 2.21 1.105.789 2.21 1.42 3.314 2.05.631.316 1.105 1.421 1.736 1.579 1.736.63 2.367-3.156 2.367-4.418 0-.947-.315-2.21 0-3.156.158-.947.316-2.683 1.263-2.998.79 1.893 1.42 3.629 1.736 5.68.631-.473 1.894 0 1.894.947.158 1.578 0 1.893.947 2.998.631.631.315 1.893.315 2.84 0 .474 2.526 1.578 2.841 1.736.947.473.947 1.104 1.263 2.209.158.631.315 1.105.473 1.736.158.473.79-.316.947-.316 1.263.316.158 1.262.947 2.051zm-29.99-39.763c0 .315.157.63.157.63-.158.157-.158.472-.315.63.788.157.63.945 0 1.102-.474.158.63.945.788 1.103-1.104-.315-.946 1.102-.788 1.732-.158-.157-.947-.63-.947-.945 0-.472 0-1.102-.158-1.575-.158-.63-.473-.63 0-1.417.316-.473.947-.945 1.262-1.26zm1.262-47.18c.789-.473 2.209-.946 1.893-2.209 1.105 0 1.894-.631 2.525-1.578.631-.789 2.209-.473 3.156-.63.473 0 .157.63.946.315.474-.158 0-.474.316-.947.316-.316.947-.789.947-1.262 0-.76.292-.642.877-.914-.216.168-.666.914-.246.914.473 0 .947-.158 1.42-.474.789-.473 1.262-1.42 1.578-2.209.158-.789.473-1.42.631-2.051.158-.158-.473-.473-.316-.947.158-.631 1.105-2.682 1.578-1.104-.157-.79.316-1.263.947-.947-.158.473-.315.789-.158 1.262.158.316.632.947.632 1.42 0 .631.157 1.263-.316 1.578-.473.316-.316.631-.316 1.263-.789-.474-.63.473-.63 1.104 0 .947-.316.947-.474 1.736-.158.315 0 1.736 0 1.736-.474.315-.631.946-1.263 1.104 0-.316.158-.631.158-.947-.473.316-.789.947-1.104 1.42-.158-.157-.316-.473-.474-.789-.63.947-1.893 1.42-2.524.316-.631.473-.474.789 0 1.262-.79-.157-1.105.79-1.578 1.42-.631-.63-1.263-1.262-.316-2.05-.631 0-1.578-.474-2.051.157-.158.158-.947.316-1.105.473-.473.158-.789.474-1.104-.157-.316 1.262-1.105.315-1.736.946.316.474.631 0 .947.474.158.158.631.789.473 1.104-.473 1.105-.789 2.21-1.578 2.84-1.104.79-1.104-1.262-.63-1.893.157-.316.63-1.262-.159-1.42-.63-.158 0 .947-.789.789 0-.474-.157-.79-.157-1.105zm10.73-7.258a2.695 2.695 0 01-.07.033c.028-.021.052-.033.07-.033zm-88.7-76.148c-.745-.115-1.52-.196-2.095-.152.058-.412.151-.595.695-.703.608 0 1.215.145 1.4.855zm-68.145 8.137c0 .627-.158.784-.474.47 0-.157-.158-.313-.158-.47h.632zm-1.544 1.248c-.158.062-.316.126-.473.19a2.544 2.544 0 00-.35.143c.315-.474 1.262-1.105 1.893-.79-.304.153-.755.305-1.07.457zm-5.241 3.962c.157-.316.473-.631.789-.631-.474.315-.79.789-1.263 1.262v-.631h.474zm-.632.315c.069.341.048.564-.048.759-.207.219-.415.437-.62.656.056-.104.092-.207.195-.31l-.316-.316c.474 0 .79-.157.79-.789zm1.746-1.262c-.476-.158-.634 0-.951.316-.317.473-.476.315-1.11.157.317-.315.317-.157.317-.63h.317c-.158-.474 0-.79.476-.79 0 .316-.159.631-.159.947.476-.158.317-.631.634-.789.476-.315.476.473.476.79zm3.462-3.156c-.158 0-.316-.158-.474-.158.158-.63.79-.63 1.105-.315-.158.315-.316.473-.631.473zm-1.42.944c-.316.314-1.736 1.725-1.736.628.158-.628.158-.628.789-.784.473-.157.789-.314.946.156zm.782-1.102c.627.158.313.474 0 .79h-.941c.47-.316.627-.474.94-.79zm-1.098 1.578a6.26 6.26 0 01-.502.434c.157-.153.323-.3.502-.434zm-.502.434c-.398.385-.737.805-1.076 1.144-.158-.473 0-.63.473-.63.171-.172.39-.343.603-.514zm-29.794 34.438h-.316c.158-.315.316-.63.631-.789.158.316 0 .474-.315.79zm-1.263-6.943c-.316 0-.473 0-.473-.473h.315c-.158-.315-.158-.631-.315-.789.275 0 .551 0 .827.106-.118-.097-.236-.303-.354-.421 0 0 .157-.158.157-.316h.473c-.157-.631.316-1.105.473-.473.473-.158.158-.158.473 0 .473-.316 1.261-.474 1.892-.316-.158.789-1.261.947-1.419 1.578h-.473c.158 0 .473.158.63.158-.157.158-.315.473-.472.63l.157.159c.316-.631 2.838-.79 3.153-.316.631.947-1.576 2.051-1.103 2.998-.315 0-.63.158-.946.474 1.419.315 2.207.473 2.68 2.05.473 1.263 1.734 1.42 2.05 2.999-.158-.316-.631-.474-.947-.316.473 0 1.735.947.946 1.578.316.158 2.365-.631 2.207.631 0 1.263-.63 1.578-1.576 2.21.315.157 2.05.473.946.946-.946.474-1.419.474-2.365.631-.473 0-.63-.473-1.103-.473-.316 0-.946.473-1.262.631-1.103.474-1.26-.631-1.891.79-.946-.632-1.734.788-2.523.315.316-.474 1.261-.947 1.42-1.578.314-1.105 1.26-.79 2.049-.631.157-.316.315-.632.63-.947-.315.158-.788.315-1.261.473 0 0-.63-.315-.946-.315l.158-.158c-.63-.316-1.104.473-1.577-.158.158.158 0-.158 0-.316.316-.157 1.261-.315 1.42-.63.472-.632 0-.79.157-1.42-.316 0-.63.157-.946.157.473-.316.63-.631.158-1.105.315-.157.63 0 .788.316.473-.316.788-.158 1.26 0l-.005-.006a1.394 1.394 0 01-.041-.23c.062.026.096.018.205.236h.157c-.157-.105-.263-.28-.32-.485-.023-.022-.041-.03-.057-.03-.004-.453.074-1.002.22-1.22-.789.63-1.42-1.263-.158-1.579-.788-.157-1.419.474-1.892.158.158.474-.315.158-.63 0v.474c-.631-.632 0-.632.157-1.263.158-.63.158-.473 0-.947-.157-.315-.157-.473.158-.473 0-.158-.158-.315-.158-.473-.473.946-.946.315-.315-.158-.63.316-.63.789-.63 1.262 0 .316.157 1.105-.316.79-.158-.316 0-.316.158-.632.157-.473-.158-.473 0-.947.157-.63.315-1.262.788-1.578l-.158-.157c-.305.305-.61.76-1.06.5.709.458-.207.756-.516.446.63-.157.63-.315 0-.473.157-.316.63-.473.63-.631.158-.316.158-.631.473-.947-.157-.158-.157-.158-.315-.158 0-.158.158-.158.158-.158zm3.31 8.363a.748.748 0 00.004.004c-.004.033-.004.043-.004-.004zm.004.004c.008-.06.03-.202.092-.203 0 .099.006.193.015.279a.324.324 0 01-.107-.076zm-2.998-4.895c.316.158.473.315.316.631-.158-.158-.316-.473-.316-.631zm27.614-29.352c-.474.314-.79.47-1.105.784 0-.94.473-.784 1.105-.784zm-28.087 28.563c-.158.316-.316.473-.316.631-.158-.473 0-.631.316-.631zm37.08-34.399c.474-.157.79 0 1.105 0 .474.158.474-.157.947-.315 0 .473-.316.631-.631.947-.631 0-1.105.315-1.42-.632zM150.54 69.192s0 .157-.315.314c0-.157-.158-.157-.158-.314.158-.156.158-.627.631-.313l-.158.157c.316-.157.474 0 .632 0-.316.156-.316.313-.632.156zm24.616-23.032c-.316 0-.631-.158-.79-.158.159-.315.474-.63.79-.946.473.473.631.789 0 1.104zm-2.051 1.256v-.47c.315-.158.63-.314.789 0-.158.313-.474.626-.79.47zm3.629-2.992c-.158.158-.158.316-.158.316-.316.158-.473.473-.789.631-.158-.631.473-.789.947-.947zm219.961-4.094c-.473.158-.947.317-1.735.475 0-.158-.474-1.742-.316-1.742.473-.159 1.262-.793 1.893-.793.947.159 1.736.159 2.525.159.631 0 .947.475 1.42.95-.789.95-1.735.95-2.84 1.11-.316 0-.631-.317-.947-.16zM277.088 13.024c.158-.316.474-1.42.79-1.578.316-.158 1.421-.158 1.58-.473.157-.947.157-1.105.947-1.42.631-.158 1.42-.474 2.053-.632.631-.158 0-.789.947-.789.948 0 2.211 1.578 3 2.052-1.105.315-1.105.157-.947 1.578.158.63 1.421.63 1.895.63l-1.105 1.105c1.105-.473 1.737-.947 2.684-.315.474.315 0 .946-.158 1.42-.157.315.316 1.104.316 1.578-1.105.315-1.579.63-2.684.157-1.264-.473-1.895-.473-3.159-.315-1.105.158-1.421-1.105-2.21-1.894-.474-.789-2.054-.157-2.843-.157-.158-.158-1.264-.79-1.106-.947zm11.361 6.005c.158-.158.474-.474.631-.79.474-.95 1.105-2.056 1.894-2.847.789-.79 1.578-.948 2.682-.474l-.63.632c.315 0 1.42-.316 1.577 0 .473.475.631.95 1.42.95.316.157.947.948.631 1.264-.473.316-.63.475-1.262.633l-2.367.474c-.315 0-.789-.632-1.104-.474-.947.316-2.683 1.581-3.472.632zm-53.491-7.899c-.474 0-.474-.473-.631-.789a15.188 15.188 0 012.84-1.104c.631-.158 1.893.789 1.262 1.42-.473.473-1.893 1.42-2.367.789-.315-.473-.63-.316-1.104-.316zm7.416-1.262c-.947.158-1.893.316-2.525.789-.315-.158-.473-.473-.63-.631.473-1.105 1.262-.158 1.893-.474.158-.157.158-.789.473-.946.158-.316.947-.158 1.262-.158.158.947.316 1.262-.473 1.42zm102.88 23.353c-.631-.473-1.893 0-2.367 0 .474-.315 1.105-.789 1.578-1.104-.473-.316-1.578-.947-.631-1.578.789-.631 1.262 0 1.42.789 0 0 1.42.63 1.578.789.789.473.789.473 1.105 1.578-1.105.157-1.736.315-2.683-.474zM146.437 76.133c-.158-.157.158-.314-.316-.47.158-.157.316-.314.474-.314.315.47.157.627-.158.784zm193.61-47.33c-.473-.473-1.262-.947-.789-1.578.158-1.104.631-1.42 1.578-2.051.947-.631 2.998 1.104 3.945 1.578-.158-.79-.474-1.263.158-1.578.473-.316 1.104.158 1.42.315 1.42.474 2.682 1.105 4.102 1.578-.315.474-.789.631-1.262.947-.473.316-.789.158-1.42-.158l.473.947c-.631.158-1.104.158-1.578.316-.315.157-.63-.947-.946-.79-1.105.316-2.052 1.263-2.84.158-.316.947-.316.947-1.263 1.105-.631 0-1.105-.473-1.578-.789zm-105.573-17.2c-.472 0-.787.159-1.259.159.157.157.157.315.315.473-.787.158-3.149.947-3.464 0-.315-1.105 3.149-1.105 3.464-1.105l.944.474zM3.004 18.39c-.158 0-.158-.158-.315-.158.473-.789 2.051-.947 2.84-1.105.473-.157 2.367-.157 2.525.632.315 1.262-2.052.315-2.525.315-.631 0-.473.474-1.105.158-.473-.316-1.104.158-1.42.158zm182.632 23.227a149.4 149.4 0 00-1.745.592 6.304 6.304 0 01-.058.007c.474-.158.632-.315.316-.63.473 0 1.262 0 1.578-.159.473-.315.473-.789 1.104-.789-.41.411-.792.733-1.195.979zm34.645 4.07c-.786-.788-.628-1.42.315-1.735.785.158 1.1.158 1.729.789-.315.158-1.572 1.42-2.044.947zm-.624-35.187a6.55 6.55 0 01-2.528.474c-.632-.158-1.105-.316-1.737-.474 1.737-.473 2.843-1.104 4.58-.631.79.316 1.58-.158 2.37-.316.948-.315 1.422.158 2.054.632l-3.791.946c.158.474.158.79.316 1.105-1.264 0-2.054 0-3.16-.473.632-.474 1.264-.79 1.896-1.263zm13.26-.789c-.949.79-1.74.79-2.688.947-.948-.158-1.739-.473-2.687-.631.948-1.105 1.422-.947 2.687-.947.949 0 1.74.316 2.688.631zm2.514 2.998c-.315.158-.473.316-.789.316-.158-.158-.473-.316-.63-.474.472 0 1.104-.473 1.42.158zm-1.893-4.576c-.631.158-1.105.474-1.736.79-.789-.159-1.42-.159-2.21-.316.79-.474 1.579-.947 2.368-1.578 1.104-.79 1.42-.474 2.682-.316-.789.158-1.42.316-2.209.474.474.315.79.63 1.105.946zm-5.68 3.472c-.316.315-.632.63-1.105.789-.474 0-1.105 0-1.736-.158 1.262-1.105 1.42-1.105 2.84-.631zm-2.841 27.455c-.631-.788-.789-.788-.789-1.893 0-.789.946-.473 1.262-1.105.473-.789-.316-.789.473-1.42.315-.157 1.577-.946 1.577-1.262-.157-.631-.473-1.105 0-1.578.631-.631 1.262-1.42 1.893-2.051.946-.947 1.893-1.736 2.839-2.683.946-.789 2.524-1.104 3.628-1.578 1.42-.473 2.366-.63 3.785-.63 1.577-.474 3.155-.632 4.416-1.736.473-.474 3.786-1.263 3.628.473-.158 1.42-3.312 1.893-4.1 2.209l-4.733 1.42c-1.261.316-2.208 1.262-3.312 2.051-.63.474-1.735.79-2.208 1.42-.473.79-1.104 1.42-1.577 2.052-.947.947-2.366 2.367-2.366 3.945 0 2.05 1.262 2.998 2.681 3.944-.946.79-2.997 0-4.1 0-1.105 0-2.209-.63-2.997-1.578zm128.285-9.477c-.316-.314-2.052-1.258-2.367-1.572-.158-.786 1.578-1.729 1.578-.314.63-.472 1.42-.315 2.05-.315v.63c.79-.315 1.105-.472 1.894-.158.158 0 .947.157 1.105.314 0 0 0 .943-.158.943-1.42.472-2.525.472-4.102.472zM34.089 23.596c0 .158.158.315.158.473-.316.158-1.578-.63-.947-.946.316-.316 1.42 0 .79.473zm-1.736-2.84c.632-.474 2.052-.158 2.21.789-.474.157-.947.473-1.42.157-.316-.157-1.263-.473-.79-.946zm14.675 13.728c-.315-.474.158-.632-.473-.79-.79-.473-.631-1.577.158-1.735.473.315 1.104.473 1.577.631.474.158.947-.158 1.42 0 1.263.631 1.894 1.105 2.84 2.21-.788-.159-1.577-.316-2.208-.159-.474.158-1.894.79-2.367.474-.316-.158-.79-.316-.947-.631zM25.411 20.435c1.262-.783 2.84-.627 4.26-.156-.316.313-.473.627-.631.784-.79 0-3.314.313-3.63-.628zm-9.79 3.319c.315.157.63.315.943.63a.993.993 0 01-.21.162c-.392.01-.934.042-1.375.163a6.763 6.763 0 00-.3-.009c-.157-.63-.314-.473-.472-.946.472-.158.943-.316 1.415 0zm.017 4.411c-.476.157-2.539.627-1.587-.627.793-.157 1.27-.314 1.587.627zm-4.586 4.898c.316-1.104 1.424-.789 2.374-.946.474.473.95.473.95 1.104 0 .316-.317 1.105-.792 1.263-.05.024-.097.045-.142.06a2.048 2.048 0 00-.655-.534c-.448-.224-.817-.687-1.106-.71a2.244 2.244 0 00-.63-.237zm2.39 1.481c.74.89 1.018 2.402 1.397 3.41.157.632-.316 1.263-.158 1.579.158.473 1.578.947 1.893 1.104.947.632 2.052 1.263 2.998 1.105 0 .631.158 2.209-.63.947 0 .157-.159.315-.316.473-1.105-.158-1.578-.473-1.736.631-.158-.158-.316-.158-.473-.315h-.474c.474.473.316.789.316 1.42.473-.474.946-.947 1.735-.79-.473.632.316.474.316.948 0 .315-1.105.63-1.42.63-1.105.159-2.21-.473-3.156-.473.158-.157.316-.157.316-.315l-1.894-.474c.158-.157 0-.473.158-.63-.631-.159-.631.315-.947.63-.473.316-.631.474-1.262.474-.947.158-1.262.789-2.21.947-1.42.157-2.682.157-4.102.315-1.104.158-1.42-.631-1.262-1.736-1.894-.157-4.26.316-5.05-2.209 1.263-.315 2.84-.946 3.945-.789.79.158 1.578.316 2.367.316.316 0 2.052-.316.947-.473-1.42-.316-2.682-.79-4.103-.632H-2.36c-.789 0-.946-.315-1.578-.946A24.277 24.277 0 01-.94 38.428c-.946 0-1.893 0-2.84.158.158-.158.158-.315.158-.473h-1.42c-.158-.947.789-1.42 1.262-1.894-.158 0-.473-.315-.63-.315 1.42-1.105 2.366-1.578 4.102-2.21.789-.315 1.104-.63 1.735-.157.947.473.316 1.262-.315 1.735.473 0 .789 0 1.262-.157.316 0 .473-.79.789-.947.473-.158 1.894.947 2.367 1.104-.158.316-.316.474-.631.79.789 0 .789 0 1.104-.632.158-.315 1.105.158 1.42.158-.473-.473-.789-.947-1.262-1.262.789-.158 2.525 0 2.84.946.316.79.474 1.42.79 2.21.157.63.473.315 1.104 0-.316-.79-.631-1.578-.79-2.367-.157-.316-.315-.79-.315-1.105-.157-.315.474-.473.158-.947.316.158 1.262.79 1.42.474.092-.183.196-.247.314-.237.205.122.372.288.637.552.437.436.606.872 1.124.692zm132.995 38.598c0 .158-.158.158 0 .316l-.158-.158c0-.158.158-.158.158-.158zm0 .316zM-4.26 26.752c-.157.315-1.257.473-1.414 0-.157-.631 2.042-1.42 2.357-1.578.157.473-.629 1.104-.943 1.578zm19.24-2.043c.47.021.985.06 1.374-.163.149-.003.277-.003.368-.003.315 1.262-1.885 1.104-2.357.473.14-.14.36-.238.614-.307zm9.8-12.154c.788 0 1.577 0 2.209.157.157 0 .473.158.63.158l-.315-.315c.316 0 .474-.316.631-.316-.473-.316-1.104.316-1.735 0 .157 0 .157-.158.315-.158-.631-.158-.947 0-1.578-.316.316-.158.79-.316 1.105-.474-.79-.79 1.578-.79 2.051-.948-.473-.473-1.262-.315-1.736-.473.632-1.58 2.683-.158 3.314-1.106-.631-.316-1.262-.158-1.893-.316.63-.79 1.735-.316 2.366-.158 1.105.316 1.578 1.106 2.367 2.054.474.473 1.105.79 1.894.631.789-.316.315.474.315.632.316.474.79.632 1.263.632l-.474-.948c.947-.632 2.21.316 1.263 1.106 1.42.158 1.104.631.473 1.895.631-.158 1.894-.948 2.051.474 0-.158.316-.474.316-.632.315.474.789.79 1.104 1.263-.789.316-2.366 1.106-2.84.79.316.632-.315.948-.789 1.263-.158-.473-.473-.947-.315-1.42-1.578.473.946 2.684-1.42 1.42.473.632.315.948 0 1.58-.632-.474-1.105-.948-1.736-1.58.158.632.473 1.106.789 1.738-.631-.474-.947-.79-1.736-.79.316.158.631.316.631.632-1.104-.158-2.84.158-3.629-1.106.631 0 1.105-.158 1.736-.158-.79-.158-2.21.158-2.683-.631h.947c-.473-.158-1.105-.316-1.578-.632 1.736-.79 3.472-.632 5.207-.948-.947 0-1.893.158-2.84-.158.631-.158 1.262-.158 1.893-.316-.473-.631-1.735-.157-2.524-.473.158.79-.316.316-.474.316-.473.157-.63.631-1.104.315v-.315c-.473-.158-.631 0-.947.315-.473.474-.315-.315-.789-.315-.473 0-.631-.632-.158-.632.474-.158 1.105-.158 1.42-.632-1.104.474-2.84.474-2.998-1.105zM6.475 24.543c.63-.474.946-.79 1.735-1.105 1.263-.473.79 1.105 1.42 1.578.316.316.474.947.79 1.105.473.157.788.315.946.946.631-.63-.473-1.104.79-1.262 1.104-.158 1.104.631.946 1.42-.158.631-.473 1.42-1.105 1.42h-1.42c-.473 0-.473.474-.789.474-.473 0-.789-.474-1.42-.316-.947.316-2.051.789-2.998 1.105-1.893.63-2.525.946-4.26-.158 1.42-.474 3.471-.631 4.418-1.736-.631.316-1.736.789-2.051 0-.158.631-1.263.473-1.736.473 0-.63.315-1.104-.316-1.262-.315.947-.473 1.105-1.262 1.578-.158-.789-.947-.789-.631-.158-.316-.158-.631-.158-.947-.315.158 0 .158-.158.158-.316-.947.158-1.262.158-2.051-.158.21-.42.56-1.556.97-1.68.244-.099.592-.16.961-.202a1.885 1.885 0 01-.67-.169v-.473c.948-.316 1.737-.158 2.683-.158-.315-.158-1.578-.316-1.578-.631 0-.474 1.578-.474 1.736-.474.947.316.474.79 1.736.631.631-.157 1.42.632 1.893 1.105 0 0-.157.158-.315.158.789 0 .947-.158 1.104.789 0 .473 1.42.315 1.736.315.789.158 1.42.474 1.578-.315 0-.316-1.262-.631-1.578-.79l.947-.473-1.42-.946zM.164 26.436c-.296.148-2.538.713-2.813.26.053.178.163.467.312.406.818-.245 1.87-.14 2.501-.666zm.053-.581a.942.942 0 00.263-.05 13.73 13.73 0 01-.263.05zm4.05-6.517c.946-.159 2.366-.634 3.155-.634-.473.634-1.104.634-1.735.792.315.475 1.262.159 1.104.475 0 .475.158.634-.315.792-.632.317-1.42.475-2.21.634-.473.158-.946-.634-1.577-.634-.158-1.425.315-1.267 1.578-1.425zm-6.945 7.246c-.006-.027-.006-.023 0 0zm27.3-7.564c-.631-.789-1.736-.158-2.052-1.262h.474c-1.263-1.263.947-.947 1.578-.632.315.158.789.632 1.104.79.474.157 1.105.157 1.578.315-.473.473 0 .789-.158 1.105-.157.315-.946.315-1.42.473-.473.158-.789.315-1.262.315-.158 0-.79-.63-1.105-.788.474-.158.947-.158 1.263-.316zm-2.525-6.312c.631 1.736-.947.79-1.736.474-.63-1.105 1.42-1.263 1.736-.474zm-8.205 9.31c-.158-.158-.947-.316-1.42-.789-.158-.316-.158-.789-.316-1.105.474-.315.79.158 1.262.474.316.158.474.473.79.789.473.473 0 .947-.316.631zm-.001-6.154h-1.104c.473-1.262 1.104-.947 2.207-1.104 1.103-.158 1.418.473 1.891 1.42.473-.316 2.365-1.105 2.05.473.787-.158.945-.158 1.575.316.316.315.316.315.158.63-.158.316.315.632.63.948 1.419 1.577-1.418 1.577-1.733 1.104-.315-.631-.315-.947-1.104-1.104-.63-.158-1.418 0-1.89-.474-.474-.473-2.68 1.578-2.996-.473.788-.474 2.365.473 2.207-.79-.315 0-.63-.157-1.103-.157.157-.158.157-.316.315-.316-.473-.63-.63.474-1.419.316.158-.316.158-.473.316-.789zM27.46 29.75c-.472-.316-2.208-.947-2.366-1.42-.316-1.105 1.894-1.578 2.367-1.736.789-.158 1.578.947 1.736 1.736.315 1.42-.79 1.262-1.736 1.42zm14.52 31.558c-.158-.473 0-.473.315-.789.632-.473 1.105-.473 1.736-.631h.789c-.158 1.42-1.42 1.893-2.525 2.051-.157 0-.315-.473-.315-.63zm99.724 22.564c-.158-.158-.473-.158-1.105-.63.158 0 .474-.159.632-.316-.158 0-.474-.158-.631-.158.473-.158.63-.316.946-.631.158-.316.947-.316 1.263-.316-.474-.158-1.105 0-1.578.158.473-.631.789-1.105 1.262-1.42a2.666 2.666 0 01-1.578-.474c.316-.158.789-.473.631-.789-.158-.63-.315-.63.158-.946.158-.158.631 0 .947.157.473.158.789-.157 1.104-.473-.315-.158-.63-.158-.946-.316.473-.789 1.42-1.893 2.366-1.262 0 .158-.157.158-.157.316.315 0 1.104-.474 1.262-.158.473.473.473 1.262.947 1.104 0 1.105-.316 1.105-1.105 1.736.316.473.631 1.105.474 1.736l-.474 1.42c-.158.631-.315.158-.789.316-1.262.315-2.84 2.366-4.102 1.262.157 0 .315-.158.473-.316zm-94.202-20.67c-.315-.316-.63-.474-.473-1.105 0-.316.473-.947.947-.789 1.104.316-.158 1.578-.474 1.894zM19.257 20.124c-.631-.157-.947.158-1.42.316-.632 0-1.105-.473-.316-.631.631-.158 1.262-.316 1.736.315zM33.3 8.132a14.427 14.427 0 01-2.209-1.104c1.105-.631 2.525-1.42 3.63-.474.788-1.893 2.997-.946 4.575-1.104-.473-.158-.789-.474-1.262-.631h1.736c0-.158-.158-.474-.316-.79.473 0 1.262-.157 1.736.159.631.473 1.42 1.262 2.051 1.42 1.578.315 3.156.789 4.734 1.104l-4.26-2.367c.63-.315 1.262-1.262 1.893-1.262s1.105 0 1.736-.158c.473 0 .473-.473.789-.631.473-.158 1.893.158 2.367.473a43.67 43.67 0 002.524.947c-.789-.631-1.42-1.262-2.209-1.736h3.63c.788 0 1.735.947 2.524 1.42-.158-.473-.473-.788-.631-1.262 1.42-.158 2.998-.63 4.576-.63 1.578 0 3.156.472 4.733.63-.788.474-1.577.947-2.524 1.42 1.578-.315 2.84-.789 4.418-.473 1.736.316 3.314.789 5.05 1.262-1.263.631-2.999 2.052-4.419 2.21-1.893.157-3.945.315-5.838.473.947.158 1.736.315 2.682.473-1.578.474-2.998.947-4.576 1.42 2.525-.473 4.892-.946 7.417-1.42 0 1.262-3.314 2.051-4.26 2.683-.79.473-1.736 1.42-2.525 1.578-.947.157-1.894.473-2.84.63.63 0 1.262 0 1.735.158-.631.79-1.105.947-1.893 1.42-.632.316-1.42-.157-1.894-.315.158.316.158.631.316.947-1.736.315-3.314.473-5.05.63.631 0 3.314-.315 3.156.79h-2.84c.631.158 2.84.315 2.682 1.262-.789.158-1.578.158-2.367.316.474.315.947.473 1.42.789-.63.789-.788.947-1.735 1.42-.474.158-1.578-.473-1.894-.316-.315.316.947.631 0 1.42-.315.316-1.735 1.263-1.42 1.736.316.474.316.316.79 0 .473-.315.473 0 .946.158.316.158.158.789.316 1.104 0 .316-.632.316-.79.474-.315.158-.473-.316-.63-.316-.158.158-.316.474-.632.631-.789.316-1.578.474-2.367.79.158-.632.474-.947-.157-1.42-.316-.316-.632.473-1.263-.159 0 1.105-1.42.474-1.578-.157.158.789-.63.473-.946.315-.474-.158-.632.474-1.42.474-.632 0-1.263-.158-1.736-.158-.631 0-1.105.473-1.263-.474-.315 1.105-1.578.316-1.578-.473-.473.631-.788 1.105-1.262.316.474-.316-.158-.631.158-.79.158-.315.947-.473 1.262-.63.947-.474 1.42-.158 2.21-.947-1.105-.158-1.105-.158-1.736-1.263.946-.315 1.42-.315 2.367-.157.63.157.788 1.104 1.577 1.42 1.894.473 2.683-.631 3.787-2.21-.63.79-2.05 2.368-3.155 1.579-1.42-1.105-.316-1.894.157-3.156-.63.631-1.262 1.578-2.05 1.42-1.263-.316-2.368-.316-1.105-1.578 1.42-1.42 3.944-1.105 5.364-.316-1.104-1.104-2.05-2.209-2.998-2.998-1.104-.789-2.998-.63-2.05-2.524 0 .158 3.313.158 3.47.158 1.105.315 2.367 1.42 3.472 2.05-.789-.788-1.578-1.42-2.367-2.208 2.367-.474 4.892-.947 7.259-1.578-.316-.158-.79-.316-1.105-.474.631-.473 1.262-1.104 1.736-1.577-1.42.63-2.367 1.104-3.63 2.209-.315.315-1.577.315-1.893.473-.789.158-1.578.316-2.21.473.474-.315.948-.789 1.421-1.104l-1.893.473.473-.473c-.316 0-1.105.158-1.105.473-.157.631-.315.474-1.104.474-.947 0-1.894-.158-2.84-.316 1.104-.947 1.735-1.262 2.998-1.578-1.578.158-2.052.158-3.314 1.105-.947.63-2.21 0-3.314-.316 1.105-.473 1.736-.473 2.84-.631 1.105-.158 1.894-.474 2.999-1.105-1.105.316-2.367.79-3.63.79-1.262 0-2.524.63-3.471-.159.789-.473 1.42-.946 2.051-1.42-.789.158-1.42.474-2.209.79zM56.18 48.37c-.158 0-2.21 0-1.736-.631s1.578-.473 1.736.631zM31.091 29.12c-.473-.947-.631-1.105 0-2.21.631-.788-.473-1.577-.789-2.05-.631-.79-.947-.474-1.893-.316-1.105.157-1.578.315-2.367-.474-.947-.789-1.263-1.42 0-1.735.789-.158 1.893.157 2.682.315.631 0 1.105.79 1.894.947.789.158 1.578-.473 2.367 0 .473.315.157.631.789.789.473 0 .789.158 1.262.315-.158.79-1.736.158-1.578.632 0 .157 1.578.946 1.736 1.104.315.158.789.474 1.104.631.316.158.79-.315.947-.315.602 0 1.636.431 2.415.607-.121-.05-.242-.17-.364-.292.79-.157 1.42-.315 2.21-.63.788-.316 1.42 0 2.05-.159 1.736-.473 3.314.316 4.577 1.42-.316.316-.632.474-.947.79.315.157.789.157 1.104.473-.789.158-1.104.158-1.262.947-.158.315-1.736.473-2.051.473-.631 0-.947-.158-1.578-.316-.631-.157-.158-1.104-.947-1.104 0 .315.158.631.158.947-.631.157-1.894.789-2.051-.158-.158.789-1.263.63-1.736 0v.63c-.947 0-1.736-.157-2.525-.157-.789 0 0-.947-.789-1.262 0 .158-.157.473-.157.789l-.474-.474c-.158.79-.631.474-1.262.474s-.631-.158-.947-.79c-.316.159-1.262.79-1.578.159zM145.49 71.242c-.789-.628.473-.942.789-1.255.158 0 .316.784-.316.784 0 .157.158.157.158.314-.315.157-.473.314-.789.627 0-.157-.158-.157-.158-.313.158-.157.158-.157.316-.157zM20.992 45.213c.316-.63.947-.157 1.263-.789h.315c-.63-.473 0-.946.316-1.262.473-.473.947.158 1.42.473a15.932 15.932 0 012.525 2.052c-.631.315-1.263 1.104-2.052.946-.63-.157-1.893-.315-2.209-1.104-.157.158-.157.158-.157.316-.316 0-.632-.158-.632-.474-.157.158-.157 0-.315.316l-.474-.474zm-4.26-19.412c.277-.069.645-.017.944.037-.168-.125-.091-.462.318-.666h-.789c0-1.89 2.84.944 3.156 1.102a4.786 4.786 0 00-.789-1.102h.632c0-.473-1.894-.473-.79-.945 1.105-.315 1.736.315 2.525-.158.316-.157.79.158 1.105.315.158 0 .63.788.63.945 0 .315-.157.787-.157 1.102.158.473.474.63.316 1.103-.158-.158-.316-.158-.474-.315 0 .315 0 .63-.315.787.158.158.473.315.63.472-.63.473-1.577.158-2.366.158-.316 0-.316.472-.631.315-.631 0-1.105 0-1.105-.63.158 0 .474-.157.632-.157-.316-.158-.79-.315-1.105-.315.158-.315.631-.473.947-.473l-.158-.157a.868.868 0 00.789-.473c-.79 0-1.736.158-2.683.315-.63.158-2.366 0-1.104-.787h-1.105c.316-.315.632-.473.947-.473zm1.181.081c.245.044.377.057.24-.08a.807.807 0 01-.24.08zm39.693 14.437c.316.789 1.263.158 1.579-.473.315-.789 3.156 1.104 3.788 1.42-.158.788-1.263.788-1.894.946.473.158 1.104 0 .947.789.473-.316 1.262-.474 1.42-1.105.474.316 1.263.631 1.263 1.42-.947 0-1.105 0-2.052.473.473.158.947.474 1.42.316.947-.158.79-.158 1.105.789-.631-.158-1.105-.158-1.736-.316 0 .316.158.789.158 1.104h-1.263c1.42.631 2.841 1.262 4.42 1.735.789.316.947.474 1.42 1.105.631.63 1.105.63 1.894.788-.158.316-.316.631-.631.947.631 0 1.736-.316 2.21 0 .946.473.63.946.473 1.893-.474 0-1.105-.316-1.42 0 .315.157.63.315 1.104.473-1.105.473-1.42 1.104-2.367.473 0 .789.315 1.577 0 2.366-1.263-.63-1.736-1.104-2.683-2.05.473-.316 1.262-.316 1.104-1.105-.315.158-1.104.631-1.42.473-.474-.157-.947-.946-1.263-1.261-.473-.316-.789-.316-1.105.157-.473.631.316.631.316 1.42-.316 0-.789-.158-1.105-.158.158.316.316.789.316 1.104.631-.157.631-.473.947.158.158.473.316 1.104.473 1.578.158-.79.632-.474 1.105-.158.632.315.632.473.79 1.262.157.63.63.473.946.946.158.316.158 1.262.158 1.735-.158-.315-.473-.63-.631-.946-.474.789.631.946.316 1.577-.158 0-.316 0-.474-.158.158.316.158.631.316.79-.316.157-1.105-.947-1.579-1.263-.789-.473-1.578-1.104-2.525-1.577.158.158.158.473.158.63-.474-.157-.947-.472-1.42-.63.315.473.473.946.789 1.42.157.315.947.315 1.262.473.474.315.947.788 1.579 1.104.473.315.315.63.157 1.262-1.42-.316-2.683-.631-4.103-1.104-.474-.158-.474-.79-.79-.79-.63-.157-1.42-.315-2.051-.472 0-.158.158-.158.158-.316-.632 0-1.105-.315-1.737-.63.316-.158.79-.316 1.105-.474-.631-.315-1.262-.315-1.736-.946-.631-1.105-.631-1.735-1.736-1.105 0-.473-.316-.63-.631-.63 0 .157-.158.473-.158.63-.631-.157-1.263-.473-1.736 0-.474.474-1.42.316-2.052.316-.474 0-1.105-.789-.947-1.262.316-.63 1.263-.789 1.105-1.42.947.158 2.21.474 3.156.158.316 0 1.737-.315 1.894-.473.158-.473-.947-1.104-1.104-1.262l2.525-2.524c.158-.158.631-.315.473-.63-.315-.632-.789-1.263-1.105-1.894-.473-.946-1.578-.788-2.21-1.577-.315-.631-.315-.631-.946-.316-.474.158-1.105.316-1.578.631 0-1.261.157-1.104 1.42-1.42-.631-.472-1.894-2.208-2.683-1.419 0-.315-.158-.63-.158-1.104 0-.316-.631 0-.79 0-.63-.316-.473-1.577-1.42-.789.632.158.79.473 1.105 1.262-1.578.316-2.683 0-4.261-.473.473.315.789.789 1.262 1.104-.473.158-.63-.473-1.104-.473-.158 0-.316.473-.474.473-.316-.158-.631-.315-.947-.315-.947-.316-2.367-.158-3.314-.158-.316 0-1.263-.158-1.579-.473-.631-.474.158-.789-.947-.789-.473 0-.789.473-1.42.158-.79-.473-1.579-.947-2.052-1.893 1.105.158 2.052.158 3.157.315-1.105-1.104-2.052-.946-3.473-1.104-.158 0-.315-1.577-.315-1.893 0-.473.63-1.577.789-2.05.473-1.262 1.105-2.05 2.367-2.524 1.579-.631 2.21-.631 3.788-.473-.158.315-.158.788-.315 1.104 1.104-.158 2.051-.631 3.156-1.104.474-.158 1.105 0 1.579 0 .63 0 .473.788.789 1.262.315.473.631.315.789.946.473.789.316.946-.158 1.735-.316.631.158.631.631.316.79-.79.632-.631 1.579-.158.315.158.947-.789 1.105-.947.315-.315 1.262-.157 1.578-.315.789-.158 2.21.473 2.84 1.104.474.473 1.737 2.524 2.21 2.208.79-.157 2.368-.315 2.684.947-.316.158-1.579.789-1.579 1.104zm-6.318 8.84c-1.262-1.105 1.578-3.315 2.683-1.737-.316.79 0 1.263-.473 2.052-.474.789-1.736.158-2.21-.316zm93.729 22.879c-.158-.158-.316 0-.316-.158.158-.158.473 0 .631 0-.158.316-.158.631-.158 1.105-.315-.316-.157-.79-.157-.947zM24.927 35.115c.158.315.316.63.316.946-.315.158-.63.158-.788.316 1.576.473-.788 2.051-1.734 1.736.315.63-.63 1.104-1.103.946-.63-.157-.946-.946-1.419-1.42-.945-1.104-2.206-1.42-3.31-2.367-.63-.473.158-.946.631-1.104.473-.158.946.789 1.419.947.945.157.945-.79.945-1.42 0-.316-1.418-.632-1.733-.79.157-.157.63-.946.945-.946.788-.158 1.261-.316 1.891 0 .63.315.946.158 1.734-.158.788-.158 1.103.158 1.734.473l-.946.474c.315.158.473.473.63.473-.472.474-1.103.79-1.733 1.263 1.103 0 1.418-.158 1.891.946.158-.158.473-.158.63-.315zm122.299 37.547c-.474.784-1.105-.156-1.578-.47 0-.157.158-.157.158-.314l.315.314v-.314c.316-.156.474 0 .474.157-.158.47.157.627.63.627z"/>
  </g>
  <path fill="none" stroke="#ff532a" stroke-dasharray="0 8" stroke-linecap="round" stroke-linejoin="round" stroke-miterlimit="20" stroke-width="2" d="M46 64.005s93-46 147-10.911M46 64s114.965-39.5 191 64M46 64.003s145.5-100.241 291 34"/>
  <path fill="#fff" d="M193 71c11.046 0 20-8.954 20-20s-8.954-20-20-20-20 8.954-20 20 8.954 20 20 20z"/>
  <path fill="none" stroke="#104378" stroke-linecap="round" stroke-linejoin="round" stroke-miterlimit="20" stroke-width="2" d="M201.778 60.997v0-2.223a4.444 4.444 0 00-4.445-4.444h-8.889A4.444 4.444 0 00184 58.774v2.223m8.884-11.108a4.444 4.444 0 100-8.889 4.444 4.444 0 000 8.889z"/>
  <path fill="#fff" d="M337 118c11.046 0 20-8.954 20-20s-8.954-20-20-20-20 8.954-20 20 8.954 20 20 20z"/>
  <path fill="none" stroke="#104378" stroke-linecap="round" stroke-linejoin="round" stroke-miterlimit="20" stroke-width="2" d="M345.778 107.997v0-2.223a4.444 4.444 0 00-4.445-4.444h-8.889a4.444 4.444 0 00-4.444 4.444v2.223m8.884-11.108a4.444 4.444 0 100-8.889 4.444 4.444 0 000 8.889z"/>
  <path fill="#fff" d="M237 148c11.046 0 20-8.954 20-20s-8.954-20-20-20-20 8.954-20 20 8.954 20 20 20z"/>
  <path fill="none" stroke="#104378" stroke-linecap="round" stroke-linejoin="round" stroke-miterlimit="20" stroke-width="2" d="M245.778 137.997v0-2.223a4.444 4.444 0 00-4.445-4.444h-8.889a4.444 4.444 0 00-4.444 4.444v2.223m8.884-11.108a4.444 4.444 0 100-8.889 4.444 4.444 0 000 8.889z"/>
  <path fill="url(#a)" d="M46 84c11.046 0 20-8.954 20-20s-8.954-20-20-20-20 8.954-20 20 8.954 20 20 20z"/>
  <path fill="#fff" d="M43.18 57.64h9.09a.91.91 0 110 1.82h-9.09a.91.91 0 110-1.82zm-4.544.905a.91.91 0 111.819 0 .91.91 0 01-1.819 0zm0-2.727a1.818 1.818 0 00-1.818 1.818v1.819c0 1.004.814 1.818 1.818 1.818h14.546A1.818 1.818 0 0055 59.455v-1.819a1.818 1.818 0 00-1.818-1.818zM43.18 68.55h9.09a.91.91 0 110 1.82h-9.09a.91.91 0 110-1.82zm-4.544.905a.91.91 0 111.819 0 .91.91 0 01-1.819 0zm2.728-6.364v1.818h9.09v-1.818zm15.454 5.454v1.819A3.636 3.636 0 0153.182 74H38.636A3.636 3.636 0 0135 70.364v-1.819a3.636 3.636 0 013.636-3.636h.91v-1.818h-.91A3.636 3.636 0 0135 59.455v-1.819A3.636 3.636 0 0138.636 54h14.546a3.636 3.636 0 013.636 3.636v1.819a3.636 3.636 0 01-3.636 3.636h-.91v1.818h.91a3.636 3.636 0 013.636 3.636zm-18.182-1.818a1.818 1.818 0 00-1.818 1.818v1.819c0 1.004.814 1.818 1.818 1.818h14.546A1.818 1.818 0 0055 70.364v-1.819a1.818 1.818 0 00-1.818-1.818z"/>
</svg>
