<svg width="80" height="80" xmlns="http://www.w3.org/2000/svg">
  <path d="M47.682 17h-.542v6.12h6.121V17h-.542zm-16.194 0c-1.95 0-3.845.38-5.633 1.137a14.416 14.416 0 00-4.603 3.115 14.416 14.416 0 00-3.115 4.603A14.34 14.34 0 0017 31.488v21.773h6.12V31.407a8.678 8.678 0 012.573-5.768 8.737 8.737 0 015.822-2.519h11.699V17H31.488zm26.241 20.094h-.542v6.12h6.12v-6.12h-.541zm0-10.047h-.542v6.12h6.12v-6.12h-.541zM62.766 17h-5.579v6.12h6.12V17zm-5.037 30.14h-.542v6.121h6.12V47.14h-.541zm0 10.047h-.542v6.12h6.12v-6.12h-.541zm-10.047 0h-.542v6.12h6.121v-6.12h-.542zm-10.047 0h-.541v6.12h6.12v-6.12h-.542zm-10.047 0h-.541v6.12h6.12v-6.12h-.542zm-10.046 0H17v6.12h6.12v-6.12h-.541z" fill="#46E3B7"/>
</svg>
