<svg width="23" height="17" xmlns="http://www.w3.org/2000/svg" xmlns:xlink="http://www.w3.org/1999/xlink">
  <defs>
    <filter x="-50%" y="-50%" width="200%" height="200%" filterUnits="objectBoundingBox" id="a">
      <feMorphology radius=".25" operator="dilate" in="SourceAlpha" result="shadowSpreadOuter1"/>
      <feOffset in="shadowSpreadOuter1" result="shadowOffsetOuter1"/>
      <feColorMatrix values="0 0 0 0 0 0 0 0 0 0 0 0 0 0 0 0 0 0 0.06 0" in="shadowOffsetOuter1" result="shadowMatrixOuter1"/>
      <feMerge>
        <feMergeNode in="shadowMatrixOuter1"/>
        <feMergeNode in="SourceGraphic"/>
      </feMerge>
    </filter>
    <filter x="-50%" y="-50%" width="200%" height="200%" filterUnits="objectBoundingBox" id="c">
      <feOffset dy=".5" in="SourceAlpha" result="shadowOffsetOuter1"/>
      <feGaussianBlur stdDeviation=".5" in="shadowOffsetOuter1" result="shadowBlurOuter1"/>
      <feColorMatrix values="0 0 0 0 0 0 0 0 0 0 0 0 0 0 0 0 0 0 0.16 0" in="shadowBlurOuter1"/>
    </filter>
    <filter x="-50%" y="-50%" width="200%" height="200%" filterUnits="objectBoundingBox" id="f">
      <feMorphology radius=".25" operator="dilate" in="SourceAlpha" result="shadowSpreadOuter1"/>
      <feOffset in="shadowSpreadOuter1" result="shadowOffsetOuter1"/>
      <feColorMatrix values="0 0 0 0 0 0 0 0 0 0 0 0 0 0 0 0 0 0 0.06 0" in="shadowOffsetOuter1"/>
    </filter>
    <filter x="-50%" y="-50%" width="200%" height="200%" filterUnits="objectBoundingBox" id="i">
      <feMorphology radius=".25" operator="dilate" in="SourceAlpha" result="shadowSpreadOuter1"/>
      <feOffset in="shadowSpreadOuter1" result="shadowOffsetOuter1"/>
      <feColorMatrix values="0 0 0 0 0 0 0 0 0 0 0 0 0 0 0 0 0 0 0.06 0" in="shadowOffsetOuter1"/>
    </filter>
    <filter x="-50%" y="-50%" width="200%" height="200%" filterUnits="objectBoundingBox" id="k">
      <feOffset dy=".5" in="SourceAlpha" result="shadowOffsetOuter1"/>
      <feColorMatrix values="0 0 0 0 0 0 0 0 0 0 0 0 0 0 0 0 0 0 0.06 0" in="shadowOffsetOuter1"/>
    </filter>
    <path id="g" d="M0 0h21v8H0z"/>
    <path id="j" d="M0 8h21v7H0z"/>
    <path d="M6.874 6.343a3 3 0 110-4.686 2.5 2.5 0 100 4.686zM5.5 4a.5.5 0 100-1 .5.5 0 000 1zm1 2a.5.5 0 100-1 .5.5 0 000 1zm2 0a.5.5 0 100-1 .5.5 0 000 1zm1-2a.5.5 0 100-1 .5.5 0 000 1zm-2-1.5a.5.5 0 100-1 .5.5 0 000 1z" id="l"/>
    <linearGradient x1="50%" y1="0%" x2="50%" y2="100%" id="d">
      <stop stop-color="#FFF" offset="0%"/>
      <stop stop-color="#F0F0F0" offset="100%"/>
    </linearGradient>
    <linearGradient x1="50%" y1="0%" x2="50%" y2="100%" id="h">
      <stop stop-color="#E12137" offset="0%"/>
      <stop stop-color="#CE1126" offset="100%"/>
    </linearGradient>
    <rect id="b" x="0" y="0" width="21" height="15" rx="1.5"/>
  </defs>
  <g filter="url(#a)" transform="translate(1 1)" fill="none" fill-rule="evenodd">
    <mask id="e" fill="#fff">
      <use xlink:href="#b"/>
    </mask>
    <use fill="#000" filter="url(#c)" xlink:href="#b"/>
    <use fill="url(#d)" xlink:href="#b"/>
    <g mask="url(#e)">
      <use fill="#000" filter="url(#f)" xlink:href="#g"/>
      <use fill="url(#h)" xlink:href="#g"/>
    </g>
    <g mask="url(#e)">
      <use fill="#000" filter="url(#i)" xlink:href="#j"/>
      <use fill="url(#d)" xlink:href="#j"/>
    </g>
    <g mask="url(#e)">
      <use fill="#000" filter="url(#k)" xlink:href="#l"/>
      <use fill="url(#d)" xlink:href="#l"/>
    </g>
    <rect mask="url(#e)" width="21" height="15" rx="1.5"/>
  </g>
</svg>
